<?xml version="1.0" standalone="no"?>
<!DOCTYPE svg PUBLIC "-//W3C//DTD SVG 20010904//EN"
 "http://www.w3.org/TR/2001/REC-SVG-20010904/DTD/svg10.dtd">
<svg version="1.0" xmlns="http://www.w3.org/2000/svg"
 width="1024.000000pt" height="1024.000000pt" viewBox="0 0 1024.000000 1024.000000"
 preserveAspectRatio="xMidYMid meet">

<g transform="translate(0.000000,1024.000000) scale(0.100000,-0.100000)"
fill="#000000" stroke="none">
<path d="M4760 9606 c-3 -2 -55 -10 -115 -16 -166 -18 -235 -27 -290 -39 -27
-6 -63 -14 -80 -17 -44 -8 -196 -44 -225 -54 -14 -4 -45 -13 -70 -20 -25 -7
-65 -20 -90 -28 -25 -8 -63 -18 -85 -23 -109 -22 -99 -19 -187 -58 -26 -12
-52 -21 -58 -21 -6 0 -18 -4 -28 -9 -9 -5 -55 -24 -102 -41 -108 -41 -144 -57
-315 -143 -131 -66 -155 -78 -237 -126 -269 -154 -630 -432 -893 -687 -70 -69
-335 -378 -453 -529 -30 -38 -65 -92 -79 -119 -14 -28 -42 -76 -63 -106 -47
-70 -132 -214 -183 -310 -22 -41 -47 -86 -57 -100 -24 -37 -74 -146 -100 -220
-13 -36 -34 -89 -47 -118 -13 -30 -33 -79 -43 -110 -10 -32 -30 -88 -43 -127
-47 -134 -86 -270 -107 -375 -5 -25 -14 -65 -20 -90 -29 -125 -49 -245 -61
-365 -6 -55 -15 -143 -21 -195 -15 -128 -15 -738 0 -865 33 -277 50 -379 87
-525 9 -36 21 -85 27 -110 22 -91 73 -251 138 -430 23 -63 55 -153 72 -200 26
-75 159 -354 215 -450 56 -97 90 -152 143 -231 32 -47 65 -99 74 -116 8 -17
33 -51 53 -76 21 -24 52 -61 68 -83 35 -44 77 -94 122 -144 17 -19 46 -55 64
-80 67 -95 405 -418 548 -525 14 -10 58 -44 96 -75 144 -116 390 -273 611
-390 54 -29 106 -57 114 -61 23 -13 218 -100 265 -119 11 -4 45 -19 75 -33 30
-14 116 -46 190 -70 139 -45 164 -53 285 -86 97 -26 227 -56 285 -66 19 -3 58
-10 85 -14 249 -44 458 -61 766 -61 277 0 463 14 679 50 30 5 87 14 125 21
213 34 622 158 874 264 699 294 1314 769 1786 1380 221 284 425 632 573 975
144 332 257 758 318 1190 25 174 31 837 10 1003 -8 67 -18 149 -21 182 -8 81
-42 271 -67 375 -34 145 -126 453 -153 515 -8 17 -23 57 -36 90 -22 62 -44
114 -85 201 -13 28 -24 54 -24 58 0 13 -130 266 -193 376 -97 169 -327 505
-377 550 -3 3 -27 32 -54 65 -26 33 -88 103 -136 156 -49 52 -98 107 -109 121
-11 14 -73 72 -138 129 -65 57 -120 106 -123 109 -3 3 -30 25 -60 50 -30 25
-62 51 -70 59 -8 8 -49 39 -90 69 -41 30 -97 72 -125 93 -60 45 -288 188 -330
208 -49 22 -57 26 -140 71 -44 24 -91 51 -105 60 -14 9 -41 22 -60 29 -19 7
-62 26 -95 41 -33 15 -76 33 -95 40 -19 7 -60 24 -90 37 -58 27 -83 36 -169
59 -30 8 -60 18 -65 23 -11 7 -55 21 -136 41 -72 18 -124 33 -170 48 -71 23
-109 32 -190 42 -41 6 -97 15 -125 21 -112 22 -165 31 -265 41 -108 10 -792
23 -800 14z m370 -81 c18 -22 8 -50 -19 -50 -32 0 -49 28 -32 49 17 20 35 20
51 1z m305 -30 c0 -23 -5 -30 -19 -30 -28 0 -43 29 -26 50 21 25 45 14 45 -20z
m-804 -6 c9 -18 7 -25 -10 -43 -17 -16 -25 -18 -39 -10 -22 14 -27 41 -12 59
18 22 48 18 61 -6z m-183 -41 c3 -29 6 -28 -123 -59 -27 -7 -63 -19 -79 -26
-16 -9 -41 -12 -60 -9 -35 6 -192 -31 -244 -58 -19 -10 -53 -19 -76 -21 -23
-2 -85 -19 -137 -38 -52 -19 -121 -45 -154 -57 -33 -12 -79 -33 -103 -46 -24
-14 -68 -34 -99 -45 -32 -11 -68 -27 -82 -37 -36 -23 -242 -102 -253 -96 -4 3
-8 14 -8 25 0 16 32 36 163 99 239 116 485 209 766 290 103 30 453 109 471
107 8 -1 16 -14 18 -29z m1432 -3 c392 -79 807 -222 1106 -380 114 -61 153
-92 137 -109 -13 -13 -36 -5 -155 55 -375 186 -713 300 -1123 379 -199 39
-195 38 -195 59 0 40 9 40 230 -4z m-310 -89 c208 -26 530 -87 610 -115 14 -5
59 -19 100 -31 135 -40 274 -90 408 -146 114 -48 373 -175 437 -214 28 -17 72
-42 98 -56 120 -63 493 -331 612 -439 22 -20 76 -67 120 -104 157 -134 437
-466 601 -711 52 -77 94 -143 94 -146 0 -3 22 -37 48 -77 27 -40 61 -99 76
-132 16 -33 50 -105 76 -160 96 -200 120 -255 120 -269 0 -8 5 -18 10 -21 6
-3 10 -13 10 -20 0 -8 13 -43 28 -77 16 -35 34 -83 41 -108 8 -25 22 -70 31
-100 26 -83 57 -191 65 -225 3 -16 10 -46 14 -65 35 -140 65 -309 81 -450 37
-328 42 -477 21 -775 -15 -236 -27 -342 -51 -472 -35 -189 -56 -281 -100 -448
-25 -97 -93 -301 -118 -355 -11 -25 -32 -73 -46 -108 -14 -35 -33 -82 -43
-105 -28 -66 -149 -306 -185 -368 -59 -101 -280 -423 -322 -469 -23 -25 -81
-93 -131 -150 -125 -146 -256 -280 -350 -361 -44 -37 -129 -111 -190 -163
-178 -155 -376 -292 -540 -376 -44 -22 -98 -51 -120 -65 -22 -13 -46 -24 -53
-24 -8 -1 -26 -10 -41 -20 -15 -11 -52 -29 -81 -41 -29 -11 -90 -39 -135 -60
-45 -22 -87 -40 -93 -40 -6 0 -40 -13 -74 -28 -35 -16 -83 -34 -108 -41 -51
-15 -111 -36 -155 -56 -52 -22 -89 -33 -132 -39 -23 -3 -77 -17 -120 -30 -102
-30 -187 -46 -254 -46 -30 -1 -83 -7 -119 -16 -115 -26 -181 -34 -370 -43
-168 -8 -555 0 -670 14 -129 15 -220 28 -260 35 -25 5 -88 14 -140 20 -52 7
-106 15 -120 20 -31 9 -89 25 -155 41 -71 17 -173 49 -220 69 -22 10 -74 28
-115 41 -41 12 -79 26 -85 29 -5 4 -48 22 -95 40 -47 19 -94 39 -106 47 -11 7
-46 22 -77 32 -57 20 -131 57 -235 119 -29 18 -55 32 -57 32 -2 0 -43 25 -92
56 -48 31 -108 68 -132 83 -49 29 -300 215 -389 287 -210 171 -486 453 -627
642 -32 42 -77 102 -100 132 -66 88 -237 355 -272 425 -11 22 -38 74 -60 115
-21 41 -54 113 -73 160 -18 47 -37 90 -41 95 -4 6 -14 30 -22 55 -9 25 -27 77
-42 115 -40 107 -71 201 -99 305 -15 52 -30 109 -35 125 -5 17 -14 53 -21 80
-6 28 -17 75 -25 105 -7 30 -16 80 -20 110 -4 30 -13 91 -21 135 -39 224 -57
733 -34 995 36 404 137 839 282 1205 50 128 220 472 294 595 155 259 381 551
605 784 380 395 856 711 1414 939 396 162 831 268 1215 297 167 13 716 4 860
-14z m-2562 -413 c4 -29 -42 -61 -67 -46 -40 25 -17 76 33 71 23 -2 32 -9 34
-25z m4222 7 c23 -23 25 -41 8 -58 -26 -26 -88 0 -88 38 0 40 47 53 80 20z
m-5652 -1242 c39 -39 -12 -103 -57 -72 -25 18 -27 41 -4 66 19 21 44 23 61 6z
m7040 0 c7 -7 12 -21 12 -33 0 -12 -5 -26 -12 -33 -7 -7 -21 -12 -33 -12 -12
0 -26 5 -33 12 -7 7 -12 21 -12 33 0 12 5 26 12 33 7 7 21 12 33 12 12 0 26
-5 33 -12z m-7390 -662 c5 -23 -16 -46 -42 -46 -46 0 -62 48 -24 74 19 13 25
14 43 2 11 -7 21 -21 23 -30z m7740 -2 c4 -25 -22 -49 -43 -40 -15 5 -21 47
-8 60 14 14 48 1 51 -20z m136 -279 c6 -17 -19 -45 -40 -45 -17 0 -28 24 -20
45 7 19 52 20 60 0z m112 -327 c8 -13 -15 -38 -37 -38 -24 0 -32 15 -20 39 11
19 45 19 57 -1z m158 -1021 c8 -12 7 -21 -5 -32 -21 -21 -49 -9 -49 20 0 36
34 44 54 12z m-8566 -264 c19 -36 -17 -80 -53 -67 -21 8 -30 51 -15 69 17 20
57 19 68 -2z m8578 -8 c16 -24 16 -27 -1 -45 -32 -35 -75 -19 -75 27 0 21 23
42 47 43 7 0 20 -11 29 -25z m-12 -291 c23 -22 20 -41 -8 -59 -31 -21 -66 -5
-66 28 0 44 43 62 74 31z m-8567 -10 c8 -20 -21 -49 -41 -41 -9 4 -16 18 -16
32 0 20 5 25 25 25 14 0 28 -7 32 -16z m44 -265 c9 -18 7 -25 -10 -43 -17 -16
-25 -18 -39 -10 -22 14 -27 41 -12 59 18 22 48 18 61 -6z m34 -299 c0 -18 -6
-26 -23 -28 -24 -4 -38 18 -28 44 3 9 15 14 28 12 17 -2 23 -10 23 -28z m314
-934 c16 -20 3 -46 -24 -46 -13 0 -26 7 -29 16 -7 19 10 44 29 44 7 0 18 -6
24 -14z m176 -356 c0 -18 -6 -26 -23 -28 -24 -4 -38 18 -28 44 3 9 15 14 28
12 17 -2 23 -10 23 -28z m206 -261 c24 -46 -33 -93 -69 -57 -16 16 -15 65 1
71 28 12 57 6 68 -14z m7037 -24 c3 -19 -2 -33 -14 -42 -26 -19 -42 -16 -59
11 -24 36 -5 68 38 64 27 -3 33 -8 35 -33z m-1358 -1194 c18 -34 -3 -69 -47
-77 -39 -6 -73 -24 -107 -56 -11 -10 -29 -18 -40 -18 -12 0 -33 -8 -47 -18
-103 -69 -125 -82 -138 -82 -31 0 -88 -27 -166 -78 -146 -96 -221 -121 -355
-122 -25 0 -81 -11 -125 -24 -100 -31 -388 -91 -520 -110 -55 -8 -121 -24
-146 -35 -58 -26 -303 -47 -549 -46 -159 0 -177 2 -202 20 -31 23 -40 39 -32
59 4 11 65 14 307 19 166 3 365 13 442 21 510 57 996 206 1489 456 116 59 214
108 218 109 4 0 12 -8 18 -18z m-3934 -196 c57 -25 109 -45 115 -45 5 0 32
-11 59 -25 58 -29 327 -120 485 -163 90 -25 217 -53 403 -88 15 -3 22 -11 22
-29 0 -13 -4 -26 -9 -29 -8 -5 -194 33 -466 94 -44 10 -125 28 -180 40 -60 13
-132 38 -180 61 -44 21 -90 39 -101 39 -31 0 -91 27 -133 59 -20 15 -54 33
-77 39 -53 15 -92 55 -74 77 7 8 16 15 21 15 5 0 57 -20 115 -45z m1282 -357
c28 -28 7 -78 -33 -78 -27 0 -45 18 -45 45 0 27 18 45 45 45 12 0 26 -5 33
-12z"/>
<path d="M5200 9030 c-8 -5 -13 -23 -12 -45 2 -41 -19 -90 -43 -99 -22 -8 -62
10 -74 33 -6 11 -11 40 -11 65 0 33 -4 46 -14 46 -8 0 -16 -6 -19 -14 -8 -19
7 -116 21 -142 23 -42 121 -38 154 6 20 28 36 144 21 153 -5 3 -15 2 -23 -3z"/>
<path d="M5464 9012 c-17 -11 -25 -84 -13 -125 12 -45 42 -67 91 -67 54 0 86
32 98 99 13 68 13 81 0 81 -13 0 -17 -11 -25 -73 -5 -39 -11 -50 -36 -62 -21
-12 -34 -13 -48 -5 -43 22 -52 41 -50 96 3 57 0 67 -17 56z"/>
<path d="M4606 8992 c-3 -5 2 -31 11 -57 13 -39 14 -54 4 -80 -15 -42 -15 -43
14 -37 18 3 25 11 25 27 0 64 25 71 73 19 26 -28 38 -35 55 -30 20 7 19 9 -18
59 -42 55 -48 75 -27 96 10 12 8 13 -8 6 -11 -4 -29 -7 -39 -7 -11 1 -27 -9
-35 -21 l-15 -21 -6 24 c-6 25 -24 37 -34 22z"/>
<path d="M4332 8934 c-17 -26 -29 -35 -43 -31 -10 3 -22 0 -25 -5 -4 -7 -10
-4 -16 6 -5 9 -16 16 -25 16 -16 0 -16 -1 3 -123 11 -67 54 -59 54 11 0 41 15
41 74 1 26 -17 56 -29 68 -27 20 3 16 8 -30 52 -55 52 -63 76 -36 114 8 12 12
22 7 22 -4 0 -18 -16 -31 -36z"/>
<path d="M5857 8946 c-17 -17 -47 -110 -47 -145 0 -32 28 -25 35 9 4 17 8 30
10 30 1 0 18 -7 37 -15 22 -9 40 -25 48 -45 7 -16 19 -30 26 -30 17 0 17 -1 3
39 -10 29 -9 33 15 52 40 31 32 69 -17 92 -59 27 -91 31 -110 13z m78 -30 c22
-16 14 -46 -14 -46 -35 0 -51 12 -51 36 0 18 5 24 23 24 13 0 32 -6 42 -14z"/>
<path d="M6226 8828 c-10 -14 -16 -44 -16 -80 0 -50 3 -60 25 -74 53 -34 135
-11 156 44 14 36 4 103 -17 119 -10 7 -44 13 -75 13 -48 0 -60 -4 -73 -22z
m99 -23 c31 -30 32 -68 3 -95 -26 -24 -32 -25 -63 -4 -30 20 -46 64 -32 90 23
41 57 45 92 9z"/>
<path d="M3823 8814 c-5 -15 9 -74 39 -156 14 -37 41 -26 33 13 -9 39 15 47
73 26 54 -21 71 -13 41 19 -15 17 -23 37 -23 66 l-1 43 -78 3 c-65 2 -78 0
-84 -14z m115 -16 c4 -20 -42 -53 -63 -44 -20 7 -19 43 3 55 24 15 56 9 60
-11z"/>
<path d="M6670 8710 c-25 -6 -50 -41 -50 -71 0 -9 12 -24 26 -34 18 -12 23
-20 16 -27 -8 -8 -19 -6 -38 6 -29 20 -48 10 -42 -20 2 -12 19 -25 45 -33 57
-20 88 -6 96 45 6 35 3 40 -34 72 -48 41 -40 68 10 31 32 -23 48 -21 38 5 -9
22 -39 34 -67 26z"/>
<path d="M3492 8673 c-5 -10 -12 -55 -16 -100 -5 -70 -4 -83 9 -83 8 0 17 11
21 24 8 33 78 65 105 47 23 -14 59 -6 59 13 0 7 -17 22 -37 33 -21 12 -51 35
-67 52 -33 35 -61 40 -74 14z m28 -21 c0 -5 9 -18 20 -30 16 -17 17 -22 6 -22
-8 0 -21 -3 -30 -6 -13 -5 -16 1 -16 30 0 20 5 36 10 36 6 0 10 -4 10 -8z"/>
<path d="M4905 8500 c-16 -4 69 -7 190 -7 153 0 197 2 145 7 -100 10 -297 10
-335 0z"/>
<path d="M4610 8475 c-47 -8 -98 -18 -115 -24 l-30 -11 30 4 c17 2 64 9 105
15 41 6 102 15 135 20 l60 9 -50 0 c-27 0 -88 -6 -135 -13z"/>
<path d="M5400 8481 c25 -5 86 -14 135 -21 94 -12 288 -50 390 -76 255 -65
609 -211 813 -335 35 -21 66 -39 69 -39 6 0 152 -102 262 -182 123 -90 321
-268 433 -390 57 -62 140 -151 184 -198 45 -47 84 -97 88 -111 3 -15 22 -46
41 -69 19 -23 35 -46 35 -52 0 -5 15 -28 34 -51 19 -23 41 -61 49 -83 7 -23
27 -59 44 -80 17 -21 33 -51 37 -65 3 -15 22 -50 41 -79 19 -29 35 -59 35 -67
0 -8 18 -49 39 -91 21 -43 44 -103 51 -136 7 -32 24 -81 39 -110 15 -28 34
-78 41 -111 7 -33 24 -91 38 -130 15 -43 32 -124 42 -210 18 -147 25 -195 40
-285 5 -30 15 -119 21 -197 17 -194 -6 -537 -41 -618 -5 -11 -14 -72 -20 -136
-7 -76 -20 -141 -36 -185 -14 -38 -34 -108 -43 -156 -11 -51 -28 -103 -43
-125 -13 -21 -31 -67 -38 -103 -12 -57 -35 -114 -60 -145 -4 -5 -13 -30 -20
-55 -6 -25 -27 -67 -45 -95 -19 -27 -38 -68 -44 -91 -6 -22 -20 -49 -32 -60
-12 -10 -32 -41 -45 -69 -22 -48 -40 -74 -126 -191 -21 -28 -38 -58 -38 -66 0
-9 -7 -22 -17 -29 -9 -8 -34 -38 -55 -67 -49 -66 -464 -481 -572 -571 -44 -38
-103 -80 -129 -95 -26 -14 -87 -53 -135 -85 -48 -32 -105 -67 -127 -78 -22
-12 -67 -35 -100 -52 -33 -17 -67 -31 -75 -31 -8 0 -44 -18 -80 -40 -36 -22
-68 -40 -72 -40 -4 0 -31 -11 -60 -24 -94 -43 -130 -56 -152 -56 -25 0 -91
-23 -163 -56 -30 -13 -61 -24 -71 -24 -18 0 -139 -28 -257 -60 -162 -44 -976
-44 -1190 0 -27 5 -68 13 -90 16 -22 4 -66 15 -97 25 -32 11 -72 19 -90 19
-34 0 -139 34 -196 64 -17 9 -40 16 -51 16 -11 0 -48 13 -83 29 -35 17 -85 37
-113 46 -45 14 -80 29 -235 104 -25 12 -74 42 -110 67 -36 25 -85 55 -110 68
-25 12 -66 38 -92 57 -42 31 -90 62 -173 113 -37 23 -121 102 -340 321 -198
198 -208 209 -307 341 -363 481 -554 962 -649 1639 -7 52 -13 196 -13 339 -1
164 -4 232 -9 200 -11 -64 -2 -512 12 -589 6 -33 15 -103 21 -155 12 -113 19
-150 54 -253 14 -43 26 -92 26 -109 0 -31 14 -87 31 -120 5 -10 9 -25 9 -33 0
-15 4 -25 28 -72 7 -13 12 -33 12 -45 0 -12 17 -58 39 -102 21 -45 57 -121 80
-171 23 -49 49 -101 57 -115 8 -14 28 -53 45 -87 16 -34 44 -81 62 -105 18
-24 40 -59 50 -79 9 -20 23 -42 32 -49 8 -7 15 -18 16 -24 0 -6 29 -45 65 -86
35 -41 89 -109 121 -150 84 -111 362 -382 500 -487 439 -334 881 -537 1418
-648 358 -75 832 -80 1210 -15 684 118 1313 444 1795 930 512 517 828 1147
950 1895 61 373 48 766 -41 1200 -35 174 -119 442 -179 572 -11 24 -20 46 -20
49 0 8 -118 244 -129 259 -4 5 -22 35 -38 65 -153 279 -465 659 -692 843 -42
34 -78 64 -81 67 -12 14 -159 130 -165 130 -3 0 -30 18 -59 40 -29 22 -57 40
-62 40 -5 0 -29 16 -52 35 -24 19 -53 37 -64 41 -12 3 -48 24 -81 45 -33 22
-64 39 -69 39 -5 0 -25 11 -46 24 -20 14 -57 32 -82 41 -25 9 -70 29 -100 44
-30 15 -75 33 -100 40 -25 7 -63 21 -85 31 -44 21 -84 33 -163 50 -29 7 -67
19 -85 28 -35 18 -83 29 -177 41 -74 10 -106 17 -170 38 -26 8 -99 16 -170 18
-88 3 -112 2 -80 -4z"/>
<path d="M4428 8433 c7 -3 16 -2 19 1 4 3 -2 6 -13 5 -11 0 -14 -3 -6 -6z"/>
<path d="M4290 8413 c-64 -10 -158 -37 -190 -54 -56 -29 -51 -28 220 49 35 10
18 13 -30 5z"/>
<path d="M2919 8383 c-7 -7 -6 -33 2 -72 10 -46 21 -69 46 -93 18 -17 34 -30
36 -27 2 2 10 22 18 44 13 36 19 40 52 43 36 3 50 23 26 38 -6 3 -17 21 -25
39 -13 32 -16 33 -80 37 -42 2 -69 -1 -75 -9z"/>
<path d="M7158 8391 c-31 -3 -59 -9 -63 -12 -3 -4 -8 -22 -12 -41 -5 -32 -1
-40 40 -81 38 -38 48 -43 58 -31 6 8 22 14 35 14 30 0 31 3 35 85 4 80 8 77
-93 66z"/>
<path d="M4788 8344 c-4 -3 -37 -10 -75 -15 -143 -19 -276 -44 -423 -79 -25
-5 -60 -13 -78 -16 -18 -4 -35 -11 -38 -15 -3 -5 -12 -9 -20 -9 -8 0 -33 -8
-57 -19 -23 -10 -62 -24 -87 -31 -25 -8 -65 -22 -90 -33 -57 -24 -76 -32 -120
-48 -19 -7 -46 -20 -60 -29 -14 -8 -36 -21 -50 -27 -162 -71 -387 -205 -511
-306 -19 -15 -66 -51 -105 -80 -195 -143 -465 -435 -620 -672 -140 -214 -278
-481 -334 -645 -18 -52 -35 -99 -39 -105 -4 -5 -13 -30 -20 -55 -7 -25 -17
-56 -21 -70 -4 -14 -13 -45 -20 -70 -7 -25 -16 -54 -21 -65 -4 -11 -10 -38
-13 -60 -3 -22 -10 -71 -16 -110 -5 -38 -14 -90 -20 -115 -44 -187 -56 -694
-21 -915 51 -327 64 -384 125 -570 20 -60 41 -126 47 -145 6 -19 29 -71 49
-115 70 -146 150 -310 168 -340 103 -177 119 -200 237 -348 33 -41 79 -101
103 -134 61 -85 260 -283 382 -380 58 -45 123 -98 145 -116 44 -37 191 -137
200 -137 4 0 25 -13 48 -29 23 -15 71 -43 107 -61 36 -18 76 -40 90 -50 14 -9
41 -23 60 -30 19 -7 62 -26 94 -42 33 -15 63 -28 67 -28 5 0 32 -11 62 -24 83
-38 279 -100 427 -135 263 -62 436 -81 750 -81 385 0 621 36 965 147 491 157
899 407 1265 773 502 501 811 1116 922 1835 25 168 36 551 19 732 -32 350
-152 791 -290 1072 -101 205 -276 490 -389 631 -59 75 -413 430 -428 430 -7 0
-14 4 -16 9 -1 4 -43 39 -93 76 -49 37 -99 76 -111 86 -22 21 -107 74 -194
122 -30 16 -66 37 -80 47 -25 16 -98 52 -305 150 -137 65 -139 66 -200 80 -50
12 -93 25 -130 40 -38 15 -60 23 -97 31 -21 5 -57 14 -80 19 -86 20 -145 31
-223 40 -44 6 -111 15 -150 21 -77 12 -677 24 -687 13z m627 -299 c0 -13 -8
-21 -22 -23 -19 -3 -23 1 -23 23 0 22 4 26 23 23 14 -2 22 -10 22 -23z m375
-50 c0 -18 -5 -25 -19 -25 -11 0 -23 5 -26 10 -11 18 3 40 25 40 15 0 20 -7
20 -25z m-1406 -16 c34 -27 35 -71 1 -104 -13 -14 -33 -25 -45 -25 -29 0 -70
44 -70 75 0 30 41 75 68 75 11 0 31 -9 46 -21z m854 -193 c83 -89 161 -174
172 -188 l20 -26 -31 -6 c-18 -3 -54 -6 -81 -6 -34 0 -50 -4 -54 -15 -4 -9 5
-56 20 -106 35 -123 51 -207 42 -216 -4 -5 -103 -11 -219 -14 -190 -6 -227 -4
-284 16 -3 1 37 154 64 243 13 46 23 85 21 87 -2 2 -35 5 -73 6 -130 4 -134
-8 58 201 95 103 177 188 182 188 6 0 79 -74 163 -164z m936 78 c9 -3 16 -15
16 -25 0 -12 7 -19 19 -19 25 0 34 -14 26 -40 -4 -13 -15 -20 -31 -20 -20 0
-23 -3 -16 -17 13 -26 4 -43 -23 -43 -28 0 -35 16 -23 49 7 20 6 23 -11 18
-24 -6 -46 16 -37 38 7 20 35 19 58 -2 11 -9 18 -11 18 -5 0 7 -4 12 -9 12
-12 0 -24 37 -16 50 7 12 8 12 29 4z m-2236 -128 c-2 -13 -10 -21 -23 -21 -23
0 -33 34 -14 45 20 13 40 -1 37 -24z m1572 8 c0 -10 6 -14 15 -10 10 4 15 -1
15 -15 0 -15 -5 -19 -16 -15 -9 3 -22 6 -30 6 -14 0 -20 31 -7 43 11 12 23 7
23 -9z m-850 -14 c0 -11 -7 -20 -15 -20 -8 0 -15 2 -15 4 0 2 -3 11 -6 20 -4
12 0 16 15 16 14 0 21 -6 21 -20z m-57 -10 c-3 -11 -9 -20 -14 -20 -10 0 -12
24 -2 33 13 13 21 7 16 -13z m-75 -12 c-5 -38 -78 -45 -78 -8 0 19 16 27 58
29 19 1 23 -3 20 -21z m1152 -3 c0 -20 -5 -25 -24 -25 -37 0 -56 10 -56 31 0
15 7 19 40 19 36 0 40 -2 40 -25z m-2022 -18 c4 -20 -25 -34 -40 -19 -15 15
-1 44 19 40 10 -2 19 -11 21 -21z m727 -7 c9 -28 -2 -40 -35 -40 -38 0 -57 44
-22 53 36 10 51 6 57 -13z m1433 -13 c3 -27 1 -28 -30 -25 -28 3 -34 7 -36 31
-3 27 -1 28 30 25 28 -3 34 -7 36 -31z m-1567 -49 c-4 -4 -21 -11 -39 -14 -29
-6 -32 -4 -32 18 0 20 7 27 33 35 28 8 33 7 38 -11 3 -12 3 -24 0 -28z m1695
36 c15 -4 24 -13 24 -25 0 -25 -20 -32 -53 -20 -20 8 -27 17 -27 37 0 20 4 25
16 20 9 -3 27 -9 40 -12z m493 2 c14 -17 4 -46 -15 -46 -18 0 -28 24 -20 45 7
19 20 19 35 1z m-370 -68 c0 6 12 12 26 12 20 0 25 -5 25 -24 0 -34 -13 -39
-54 -19 -39 18 -42 24 -24 56 12 22 12 21 19 -8 4 -16 7 -24 8 -17z m-1949 1
c0 -25 -49 -46 -62 -27 -13 21 -4 42 22 48 31 8 40 4 40 -21z m-126 -45 c5
-17 0 -24 -25 -34 -26 -11 -32 -11 -40 1 -15 24 -10 38 19 53 29 16 36 13 46
-20z m2240 1 c8 -8 22 -15 30 -15 20 0 20 -11 0 -36 -11 -13 -17 -15 -20 -6
-3 6 -13 12 -22 12 -29 0 -40 13 -31 38 10 26 22 28 43 7z m-2372 -51 c10 -21
9 -27 -3 -35 -20 -13 -35 -11 -49 6 -10 13 -10 19 5 35 24 26 33 25 47 -6z
m563 -24 c0 -18 -6 -26 -23 -28 -13 -2 -25 3 -28 12 -10 26 4 48 28 44 17 -2
23 -10 23 -28z m1955 6 c24 -20 27 -26 17 -41 -11 -14 -17 -15 -40 -4 -27 12
-32 24 -21 53 8 21 11 20 44 -8z m-2624 -38 c4 -15 1 -25 -12 -35 -25 -18 -42
-16 -54 7 -11 21 -5 44 10 35 5 -3 11 -1 15 5 11 17 33 11 41 -12z m2713 -16
c-10 -2 -20 -13 -24 -25 -6 -19 -8 -20 -12 -4 -6 24 14 47 35 39 16 -6 16 -7
1 -10z m-3071 -32 c23 -16 49 -44 58 -62 9 -18 20 -35 23 -38 19 -14 51 -71
51 -89 0 -40 -29 -71 -65 -71 -44 0 -70 34 -79 101 -9 69 -50 139 -76 132 -28
-7 -26 22 2 41 31 22 39 20 86 -14z m262 -27 c0 -7 -7 -13 -15 -13 -8 0 -15 6
-15 14 0 8 -5 16 -12 18 -6 2 -8 10 -4 17 6 9 12 8 27 -5 10 -9 19 -23 19 -31z
m2856 36 c7 -12 -22 -46 -32 -37 -8 9 5 48 16 48 5 0 12 -5 16 -11z m24 -38
c0 -12 -20 -25 -27 -18 -7 7 6 27 18 27 5 0 9 -4 9 -9z m40 1 c0 -11 -22 -32
-32 -32 -5 0 -4 9 2 20 11 20 30 28 30 12z m-2984 -17 c10 -25 -7 -40 -23 -20
-7 11 -13 22 -13 27 0 14 30 9 36 -7z m-36 -41 c0 -8 -4 -14 -10 -14 -12 0
-31 35 -23 44 9 8 33 -14 33 -30z m3040 11 c0 -26 -14 -33 -25 -15 -9 14 1 40
15 40 5 0 10 -11 10 -25z m39 -11 c-15 -18 -22 -13 -13 10 3 9 10 13 16 10 5
-3 4 -12 -3 -20z m490 -15 c-13 -24 -42 -21 -47 5 -5 24 17 37 40 25 15 -8 16
-14 7 -30z m-382 -15 c66 -41 13 -135 -56 -100 -44 23 -55 74 -24 108 17 19
40 17 80 -8z m-2057 -58 c0 -8 -4 -17 -9 -21 -12 -7 -24 12 -16 25 9 15 25 12
25 -4z m798 -4 c2 -7 -3 -12 -12 -12 -9 0 -16 7 -16 16 0 17 22 14 28 -4z
m-2418 -8 c11 -12 10 -18 -3 -32 -15 -15 -19 -15 -32 -1 -17 17 -11 49 10 49
7 0 18 -7 25 -16z m1560 -4 c0 -4 -7 -10 -15 -14 -10 -4 -15 1 -15 14 0 13 5
18 15 14 8 -4 15 -10 15 -14z m-40 -10 c0 -5 -4 -10 -10 -10 -5 0 -10 5 -10
10 0 6 5 10 10 10 6 0 10 -4 10 -10z m970 6 c0 -11 -19 -15 -25 -6 -3 5 1 10
9 10 9 0 16 -2 16 -4z m-2210 -41 c10 -20 10 -26 -1 -37 -29 -27 -81 -60 -86
-55 -8 9 7 28 18 22 5 -3 6 1 3 9 -3 8 -12 12 -20 9 -8 -3 -14 -2 -14 2 0 13
26 31 49 32 30 2 38 10 23 25 -16 16 -15 29 2 22 7 -3 19 -16 26 -29z m1201
20 c-1 -15 -24 -12 -29 3 -3 9 2 13 12 10 10 -1 17 -7 17 -13z m1069 11 c0
-11 -19 -15 -25 -6 -3 5 1 10 9 10 9 0 16 -2 16 -4z m-1116 -21 c3 -9 0 -15
-9 -15 -8 0 -15 7 -15 15 0 8 4 15 9 15 5 0 11 -7 15 -15z m1167 -3 c-7 -2
-18 1 -23 6 -8 8 -4 9 13 5 13 -4 18 -8 10 -11z m1180 -41 c-11 -20 -13 -20
-36 -5 -23 15 -24 17 -8 41 16 24 16 24 36 5 16 -16 17 -23 8 -41z m-2403 32
c-5 -25 -28 -28 -28 -4 0 12 6 21 16 21 9 0 14 -7 12 -17z m1272 1 c0 -8 -5
-12 -10 -9 -6 4 -8 11 -5 16 9 14 15 11 15 -7z m-1324 -15 c7 -12 -15 -31 -28
-23 -4 3 -8 12 -8 20 0 17 26 19 36 3z m1394 -9 c0 -5 -4 -10 -10 -10 -5 0
-10 5 -10 10 0 6 5 10 10 10 6 0 10 -4 10 -10z m-1450 -20 c0 -11 -4 -20 -10
-20 -5 0 -10 9 -10 20 0 11 5 20 10 20 6 0 10 -9 10 -20z m1520 -6 c0 -8 -4
-12 -10 -9 -5 3 -10 10 -10 16 0 5 5 9 10 9 6 0 10 -7 10 -16z m1030 4 c0 -19
-18 -43 -25 -36 -9 9 4 48 16 48 5 0 9 -6 9 -12z m-2820 -29 c36 -10 74 -19
85 -21 16 -3 20 -12 21 -53 1 -28 4 -70 8 -95 7 -42 6 -47 -17 -59 -21 -11
-36 -10 -98 5 -109 26 -119 40 -119 159 l0 95 28 -6 c15 -3 56 -14 92 -25z
m236 19 c5 -8 2 -9 -9 -5 -11 4 -17 1 -17 -8 0 -8 -4 -15 -9 -15 -14 0 -23 18
-16 30 8 14 42 13 51 -2z m1610 -25 c-10 -10 -19 5 -10 18 6 11 8 11 12 0 2
-7 1 -15 -2 -18z m324 -81 c0 -93 -2 -109 -18 -119 -24 -15 -141 -27 -179 -19
-29 7 -30 8 -26 59 2 29 6 71 9 93 l5 42 77 25 c42 15 89 26 105 27 l27 0 0
-108z m-3070 89 c0 -5 23 -23 50 -41 28 -18 50 -36 50 -41 0 -5 -9 -18 -20
-29 -25 -25 -43 -17 -89 35 -34 39 -38 54 -19 73 14 14 28 16 28 3z m465 -11
c3 -11 11 -20 16 -20 14 0 11 -12 -9 -38 l-18 -24 -26 23 -26 23 21 28 c25 33
33 35 42 8z m595 0 c0 -21 -24 -28 -35 -10 -8 14 3 30 21 30 8 0 14 -9 14 -20z
m2690 0 c-12 -23 -30 -27 -30 -7 0 17 10 27 27 27 11 0 11 -5 3 -20z m-930
-20 c0 -6 -5 -10 -11 -10 -14 0 -40 26 -32 33 8 8 43 -11 43 -23z m610 5 c0
-9 7 -18 15 -21 20 -8 19 -18 -7 -47 l-22 -25 -23 24 c-28 30 -28 27 0 58 25
29 37 33 37 11z m374 -4 c17 -19 17 -21 -1 -40 -19 -21 -20 -21 -37 -2 -15 16
-15 22 -4 40 16 26 20 26 42 2z m-2349 -11 c8 -25 -1 -40 -25 -40 -20 0 -32
22 -24 45 9 22 42 18 49 -5z m2719 -78 c-6 -4 -13 -15 -17 -25 -6 -17 -9 -16
-36 4 l-30 22 22 29 21 28 26 -25 c16 -16 21 -28 14 -33z m-1884 33 c0 -8 -4
-15 -10 -15 -5 0 -10 7 -10 15 0 8 5 15 10 15 6 0 10 -7 10 -15z m1601 -31
c12 -23 12 -27 -6 -40 -16 -12 -21 -12 -34 1 -12 11 -12 19 -3 40 15 32 25 32
43 -1z m-3925 -5 c18 -20 18 -21 -1 -35 -18 -13 -20 -13 -23 0 -2 9 -10 16
-18 16 -12 0 -12 3 -2 20 16 25 20 25 44 -1z m1969 -25 c16 -27 40 -51 61 -61
41 -20 42 -28 7 -47 -30 -15 -71 -65 -89 -106 -10 -24 -10 -24 -26 16 -15 37
-66 93 -100 108 -7 3 -9 8 -3 11 48 24 77 50 95 85 11 22 22 40 24 40 2 0 16
-20 31 -46z m-2027 -22 c9 -6 10 -16 3 -34 -11 -30 -34 -41 -50 -25 -15 15
-14 30 2 24 17 -7 44 9 34 20 -5 4 -12 1 -17 -7 -11 -17 -13 -9 -4 14 7 18 13
19 32 8z m856 -8 c7 -19 -10 -44 -31 -44 -12 0 -13 3 -4 14 6 8 11 18 10 22
-5 28 15 33 25 8z m2348 -23 c-3 -20 0 -22 20 -16 22 6 22 6 3 -10 -17 -13
-21 -13 -34 0 -21 20 -22 57 -2 53 10 -2 15 -12 13 -27z m838 8 c14 -26 6 -49
-17 -48 -11 0 -13 3 -5 6 6 2 12 11 12 19 0 12 -4 12 -20 2 -25 -16 -35 -6
-20 21 14 27 36 27 50 0z m-3254 -24 c10 -24 -6 -38 -21 -18 -7 10 -11 21 -9
25 8 13 24 9 30 -7z m2464 -24 c0 -12 -20 -25 -27 -18 -7 7 6 27 18 27 5 0 9
-4 9 -9z m-3329 -20 c17 -16 19 -23 10 -40 -14 -25 -27 -27 -47 -7 -17 18 -18
38 -2 54 15 15 15 15 39 -7z m3362 -6 c-5 -13 -23 -22 -23 -11 0 15 14 35 21
31 4 -3 6 -12 2 -20z m825 2 c22 -23 22 -23 2 -40 -27 -23 -34 -22 -50 8 -11
20 -11 27 0 40 17 20 23 19 48 -8z m-3359 -8 c-11 -22 -18 -23 -41 -5 -25 19
-23 22 17 23 31 1 34 -1 24 -18z m3001 1 c0 -5 9 -18 21 -28 l20 -20 -24 -26
-25 -27 -28 27 -27 28 22 14 c11 8 21 21 21 28 0 8 5 14 10 14 6 0 10 -4 10
-10z m-3536 -48 c-14 -22 -34 -22 -48 1 -9 15 -7 21 9 33 17 12 21 12 34 -1
12 -12 13 -19 5 -33z m2336 7 c0 -24 -27 -36 -49 -22 -17 11 -16 44 2 55 17
10 47 -10 47 -33z m790 26 c9 -10 9 -15 1 -15 -6 0 -11 -7 -11 -17 0 -15 -2
-15 -19 1 -16 14 -17 21 -8 32 16 17 22 17 37 -1z m-2645 -6 c8 -12 -24 -51
-36 -43 -5 3 -9 12 -9 21 0 12 3 13 14 4 12 -10 13 -8 9 8 -6 22 11 29 22 10z
m-55 -40 c10 -17 9 -20 -7 -17 -14 2 -17 -2 -15 -19 4 -28 -9 -30 -26 -3 -10
16 -10 20 2 20 7 0 16 9 19 20 7 25 13 25 27 -1z m2733 -8 c-3 -11 -11 -17
-19 -14 -10 4 -11 9 -2 23 15 23 28 17 21 -9z m-3503 -22 c0 -4 -8 -17 -19
-30 -16 -20 -21 -21 -35 -10 -35 29 -11 76 30 57 13 -6 24 -14 24 -17z m1625
-9 c0 -31 -31 -39 -40 -11 -8 26 2 43 23 39 11 -2 17 -13 17 -28z m2683 18
c15 -15 15 -41 0 -56 -18 -18 -60 26 -47 50 11 21 30 23 47 6z m-775 -15 c-6
-16 -5 -16 10 -4 10 8 17 9 17 3 0 -17 -21 -25 -32 -14 -6 6 -7 15 -4 21 11
17 16 13 9 -6z m-2836 -10 c-4 -3 -2 -12 4 -19 6 -7 8 -18 4 -24 -5 -8 -12 -4
-22 10 -13 19 -13 24 -2 31 17 10 25 12 16 2z m2922 -75 c-6 -11 -12 -18 -13
-16 -1 1 -8 12 -16 22 -8 11 -10 17 -3 13 18 -11 25 9 8 23 -12 10 -16 9 -21
-4 -6 -16 -24 -13 -24 4 0 18 36 16 57 -3 18 -16 20 -24 12 -39z m-2946 5 c-6
-15 -23 -18 -23 -4 0 5 -3 17 -6 26 -6 15 -4 15 14 4 11 -7 18 -19 15 -26z
m-740 7 c12 -10 -10 -50 -27 -50 -21 0 -38 27 -31 50 5 16 12 19 28 14 12 -3
26 -10 30 -14z m1451 4 c7 -19 -10 -44 -29 -44 -7 0 -18 7 -25 15 -10 12 -10
18 0 30 16 20 46 19 54 -1z m2990 -7 c8 -13 6 -20 -9 -31 -24 -18 -35 -16 -49
8 -9 13 -7 20 9 32 22 17 34 14 49 -9z m-4239 -27 c0 -16 -6 -26 -18 -28 -19
-4 -32 20 -23 44 9 25 41 13 41 -16z m505 15 c17 -21 5 -31 -15 -12 -8 9 -15
18 -15 21 0 11 18 6 30 -9z m3023 -32 c-7 -18 -23 -16 -23 3 0 9 -5 12 -12 8
-9 -6 -9 -3 0 9 11 13 17 14 27 4 7 -6 10 -18 8 -24z m-3056 1 c11 -11 13 -18
5 -26 -13 -13 -47 16 -37 32 8 14 14 13 32 -6z m2377 -1 c4 -9 0 -23 -9 -32
-13 -14 -17 -14 -31 1 -9 9 -14 24 -11 32 8 21 43 20 51 -1z m740 -52 c-4 -3
-9 0 -11 7 -4 10 -8 10 -19 1 -19 -16 -28 -6 -19 21 l7 22 24 -23 c13 -12 21
-25 18 -28z m706 3 c0 -16 -37 -37 -50 -29 -16 10 -12 45 5 45 8 0 15 5 15 11
0 8 5 8 15 -1 8 -7 15 -18 15 -26z m-4872 0 c3 -22 -21 -39 -39 -28 -11 6 -12
38 -2 48 13 13 38 1 41 -20z m305 12 c19 -15 22 -32 6 -41 -12 -8 -49 23 -49
42 0 17 20 16 43 -1z m704 -1 c8 -9 12 -19 8 -23 -4 -4 -10 -1 -12 6 -3 6 -11
12 -19 12 -9 0 -12 5 -9 10 8 14 14 13 32 -5z m691 -79 c-2 -1 -15 -10 -30
-19 -15 -10 -30 -28 -34 -42 -3 -14 -12 -25 -19 -25 -7 0 -16 11 -19 25 -4 14
-19 32 -34 42 -15 9 -29 18 -31 20 -2 1 16 22 40 45 l44 43 43 -43 c24 -24 42
-45 40 -46z m-728 54 c0 -5 7 -10 16 -10 20 0 13 -24 -9 -28 -12 -2 -15 1 -11
12 3 9 1 16 -5 16 -6 0 -11 5 -11 10 0 6 5 10 10 10 6 0 10 -4 10 -10z m3234
-29 c21 -20 23 -26 11 -37 -18 -19 -22 -18 -36 8 -10 18 -9 20 6 15 11 -5 15
-3 12 5 -2 7 -16 12 -31 11 -15 -1 -26 3 -26 11 0 20 37 12 64 -13z m-1595
-53 c13 -16 37 -36 54 -44 l30 -16 -25 -16 c-29 -19 -98 -99 -98 -113 0 -5 -4
-9 -10 -9 -5 0 -10 9 -10 19 0 24 -44 78 -82 101 l-28 17 40 27 c23 15 51 43
63 63 19 33 22 34 31 18 6 -10 22 -31 35 -47z m-2344 39 c11 -8 15 -19 10 -26
-5 -9 -12 -7 -26 8 -30 32 -20 44 16 18z m4647 -5 c4 -13 0 -18 -15 -18 -11 1
-22 -5 -24 -11 -3 -7 2 -13 11 -13 9 0 16 -4 16 -10 0 -16 -15 -12 -34 9 -17
18 -17 20 3 40 26 26 37 26 43 3z m-3954 -7 c2 -2 -7 -18 -19 -35 -13 -17 -25
-26 -28 -19 -2 6 3 15 10 20 12 7 12 12 1 30 -12 19 -12 20 10 14 13 -4 25 -9
26 -10z m2406 -21 c9 -24 -5 -44 -30 -44 -13 0 -24 2 -24 4 0 2 -3 11 -6 19
-7 18 22 48 41 41 7 -3 16 -12 19 -20z m1784 14 c20 -20 14 -57 -14 -83 -33
-31 -94 -43 -233 -49 -130 -5 -141 -11 -141 -78 0 -31 -4 -38 -19 -38 -34 0
-42 60 -15 111 22 44 62 56 213 64 122 7 136 10 158 31 12 13 23 30 23 39 0
18 12 19 28 3z m-4915 -20 c4 -12 4 -25 1 -28 -8 -7 -34 31 -28 41 9 16 22 10
27 -13z m670 7 c-3 -9 -8 -14 -10 -11 -3 3 -2 9 2 15 9 16 15 13 8 -4z m3340
-30 c-10 -7 -22 -11 -27 -8 -5 4 -1 12 9 19 10 7 22 11 27 8 5 -3 1 -12 -9
-19z m697 -1 c0 -8 -4 -14 -10 -14 -5 0 -10 9 -10 21 0 11 5 17 10 14 6 -3 10
-13 10 -21z m-4731 -14 c43 -32 44 -37 8 -77 -25 -28 -47 -29 -81 -2 -29 23
-33 54 -10 87 20 29 33 28 83 -8z m4057 -16 c-18 -18 -26 -18 -26 0 0 15 20
26 33 19 4 -2 1 -11 -7 -19z m-3366 6 c0 -3 -4 -11 -8 -18 -7 -10 -13 -8 -26
7 -17 18 -16 19 8 17 14 0 26 -3 26 -6z m3423 -54 c28 -44 37 -75 13 -43 -8
11 -17 14 -20 8 -4 -5 4 -19 16 -30 15 -15 24 -18 29 -10 4 8 13 0 23 -20 15
-28 15 -33 2 -46 -13 -13 -17 -13 -30 7 -9 12 -16 26 -16 31 0 4 -11 20 -25
35 -26 28 -33 52 -15 52 6 0 10 5 10 11 0 6 -9 8 -20 4 -11 -4 -20 -2 -20 4 0
6 7 11 16 11 14 0 14 3 4 15 -7 8 -9 15 -4 15 5 0 21 -20 37 -44z m-3464 25
c9 -6 11 -15 6 -27 -8 -18 -8 -18 -12 -1 -3 9 -9 17 -14 17 -5 0 -9 5 -9 10 0
12 10 13 29 1z m1253 -55 c27 -33 27 -36 10 -48 -10 -7 -21 -21 -25 -30 -9
-25 -26 -22 -39 7 -6 14 -15 25 -20 25 -14 0 -9 30 7 36 8 3 17 14 20 25 9 26
16 24 47 -15z m-1287 4 c9 -29 -12 -60 -40 -60 -26 0 -33 14 -14 26 6 3 15 0
20 -7 6 -11 9 -10 15 5 4 11 2 21 -6 26 -7 4 -9 13 -6 19 11 17 24 13 31 -9z
m3244 -16 c26 -22 31 -33 31 -70 0 -24 -2 -44 -4 -44 -3 0 -26 15 -51 33 -26
17 -62 42 -82 53 l-35 22 23 16 c35 24 83 20 118 -10z m-2785 -9 c7 -20 -18
-49 -38 -42 -18 7 -21 38 -5 54 13 13 35 7 43 -12z m3705 4 c-18 -11 -39 -11
-39 0 0 11 31 20 44 13 4 -2 2 -8 -5 -13z m-5144 -30 c0 -15 -7 -25 -18 -27
-22 -4 -33 24 -17 43 18 21 35 13 35 -16z m323 16 c2 -1 0 -15 -4 -30 -8 -33
-30 -43 -50 -23 -23 22 1 71 30 62 12 -4 22 -8 24 -9z m4862 -32 c0 -8 -7 -22
-16 -31 -15 -14 -18 -14 -35 9 -24 31 -24 42 0 29 28 -15 34 -13 28 11 -4 16
-3 18 9 8 8 -6 14 -18 14 -26z m-1259 7 c22 -12 42 -27 46 -35 7 -20 33 -19
48 2 11 15 16 15 46 3 63 -26 206 -129 258 -185 52 -58 67 -98 58 -158 -6 -44
3 -63 62 -130 28 -32 58 -71 66 -87 l15 -29 -55 -26 c-55 -27 -77 -57 -56 -78
6 -6 11 -14 11 -17 0 -11 -51 -31 -61 -25 -23 15 -186 57 -302 79 -185 35
-244 76 -282 194 -19 58 -16 113 11 195 14 43 14 50 1 65 -65 74 -61 176 9
231 34 26 74 27 125 1z m-2997 -16 c20 -8 21 -34 2 -34 -7 0 -16 9 -19 20 -6
22 -5 23 17 14z m2760 -96 c-2 -75 2 -102 18 -141 16 -37 19 -60 15 -105 -10
-88 -24 -119 -73 -153 -24 -16 -44 -35 -44 -40 0 -17 40 -69 53 -69 7 0 25 7
41 15 27 14 30 14 44 -6 40 -57 79 -91 137 -119 35 -16 72 -30 83 -30 33 0 33
-15 0 -40 -39 -29 -200 -108 -304 -150 -43 -17 -81 -34 -84 -37 -20 -22 300
55 408 98 100 40 112 38 69 -10 -19 -21 -38 -48 -42 -60 -6 -21 -52 -51 -77
-51 -8 0 -32 -10 -53 -22 -22 -12 -85 -45 -140 -73 -115 -60 -109 -51 -171
-269 -19 -66 -41 -130 -49 -142 -17 -26 -73 -44 -197 -65 -43 -7 -78 -17 -78
-21 0 -4 8 -8 18 -8 9 0 52 -8 94 -17 74 -17 77 -19 83 -50 3 -18 -1 -61 -9
-96 -8 -34 -17 -96 -21 -137 -3 -41 -15 -135 -26 -208 -10 -73 -19 -148 -19
-166 0 -32 2 -34 59 -50 58 -16 181 -87 181 -105 0 -21 -230 -31 -364 -16
l-68 8 -33 71 c-124 268 -325 748 -325 777 0 10 13 51 29 92 16 40 34 92 40
115 9 31 18 43 35 48 28 7 61 40 70 71 14 46 -48 113 -77 84 -6 -6 -19 -11
-29 -11 -10 0 -25 -11 -34 -25 -14 -22 -14 -29 -2 -67 14 -40 14 -44 -5 -63
-31 -32 -64 -107 -76 -170 -11 -56 -35 -95 -72 -115 -61 -33 -301 -75 -424
-74 -87 1 -212 19 -273 39 -42 14 -52 21 -46 34 21 44 93 275 99 314 6 37 12
48 35 57 55 23 67 97 21 129 -45 32 -87 28 -111 -11 -26 -43 -25 -60 4 -95 23
-27 23 -28 4 -47 -10 -11 -23 -38 -29 -60 -14 -51 -106 -261 -167 -381 -31
-60 -64 -108 -102 -145 -30 -30 -61 -67 -68 -81 -8 -14 -67 -83 -132 -152
-143 -154 -178 -217 -121 -217 24 0 105 -44 155 -83 l40 -32 -69 -7 c-184 -17
-310 -19 -354 -6 -47 14 -51 20 -167 234 l-44 81 24 44 c14 24 39 91 56 149
28 96 33 134 56 440 30 416 39 482 69 546 25 52 96 148 158 217 33 36 34 40
24 80 l-10 41 64 59 c108 99 221 187 274 212 30 15 110 35 200 51 144 26 167
28 570 32 l419 4 60 55 c66 62 133 97 215 114 42 9 72 8 150 -5 l98 -17 154
50 c85 27 157 49 160 50 3 1 5 -41 3 -91z m1761 32 c0 -16 -6 -26 -19 -28 -23
-5 -35 13 -28 40 7 30 47 20 47 -12z m-5168 10 c6 0 9 -9 6 -21 -4 -15 -11
-19 -27 -15 -11 3 -24 6 -28 6 -5 0 -8 10 -8 21 0 17 4 20 23 15 12 -3 27 -6
34 -6z m603 -4 c0 -8 5 -16 12 -18 8 -3 8 -9 0 -24 -10 -16 -11 -17 -12 -2 0
9 -5 20 -11 24 -8 5 -10 -3 -7 -25 3 -21 0 -31 -9 -31 -16 0 -16 14 -1 57 12
34 28 44 28 19z m3720 -59 c0 -10 -4 -16 -9 -13 -5 4 -12 0 -14 -6 -4 -10 -8
-9 -16 2 -8 11 -7 16 4 18 8 2 15 10 15 19 0 10 -6 14 -20 10 -23 -6 -26 3 -8
21 10 10 16 8 30 -10 10 -13 18 -31 18 -41z m614 41 c3 -13 1 -27 -3 -31 -14
-14 -45 -3 -49 17 -3 14 0 17 12 13 9 -4 16 -2 16 3 0 5 -8 11 -17 13 -12 3
-9 5 8 6 20 1 28 -5 33 -21z m-3783 -59 c9 -18 8 -25 -8 -41 -33 -32 -75 1
-53 43 14 25 46 24 61 -2z m-1191 -16 c0 -10 -4 -24 -9 -31 -7 -12 -12 -12
-30 -1 -34 22 -26 49 16 49 15 0 23 -6 23 -17z m583 -3 c-6 -22 -23 -38 -23
-21 0 17 12 41 20 41 5 0 6 -9 3 -20z m4421 -6 c10 -27 7 -34 -18 -34 -28 0
-40 14 -32 35 7 20 42 19 50 -1z m-4394 -22 c-24 -43 -31 -47 -24 -17 9 39 13
47 25 40 5 -4 5 -13 -1 -23z m3780 13 c0 -9 -6 -12 -15 -9 -9 4 -15 0 -15 -8
0 -20 20 -37 36 -31 8 3 14 1 14 -5 0 -5 -7 -12 -15 -16 -10 -4 -22 5 -35 27
-24 39 -25 44 -2 50 30 8 32 7 32 -8z m-3830 -45 c0 -5 -4 -10 -10 -10 -5 0
-10 5 -10 10 0 6 5 10 10 10 6 0 10 -4 10 -10z m-598 -10 c5 0 8 -10 6 -22 -2
-17 -9 -22 -23 -20 -28 5 -39 18 -31 37 4 11 12 15 22 11 9 -3 20 -6 26 -6z
m5076 -38 c3 -20 0 -23 -25 -20 -20 2 -29 9 -31 26 -3 20 0 23 25 20 20 -2 29
-9 31 -26z m-4478 8 c8 12 10 11 10 -7 0 -12 -3 -24 -8 -27 -12 -7 -45 22 -37
34 6 9 10 9 16 -1 8 -12 11 -11 19 1z m3880 -30 c0 -12 -3 -12 -16 2 -9 9 -13
21 -9 28 9 14 25 -5 25 -30z m-4216 -4 c3 -14 18 -31 33 -38 38 -19 40 -37 5
-49 -22 -7 -33 -19 -37 -40 -8 -37 -31 -38 -38 0 -4 19 -15 32 -36 41 -39 16
-39 26 -1 48 16 9 32 27 35 39 7 30 31 29 39 -1z m4180 8 c9 -24 7 -28 -9 -14
-17 14 -20 30 -6 30 5 0 12 -7 15 -16z m-3864 -55 c0 -11 -4 -19 -10 -19 -5 0
-10 7 -10 15 0 8 -4 15 -10 15 -5 0 -10 -5 -10 -12 0 -6 -3 -9 -6 -5 -4 3 -4
13 -1 21 8 21 47 8 47 -15z m-602 13 c17 -11 4 -45 -15 -38 -8 3 -19 6 -24 6
-5 0 -9 9 -9 20 0 21 24 27 48 12z m4521 -16 c-2 -2 -13 -6 -23 -8 -24 -4 -33
19 -9 24 18 4 41 -7 32 -16z m606 -21 c0 -14 -8 -21 -27 -23 -24 -3 -28 0 -28
23 0 23 4 26 28 23 19 -2 27 -9 27 -23z m-4574 -18 c-1 -12 -15 -9 -19 4 -3 6
1 10 8 8 6 -3 11 -8 11 -12z m3972 -1 c9 3 17 2 17 -4 0 -11 -36 -23 -44 -14
-3 3 -6 12 -6 21 0 12 2 13 8 3 5 -7 16 -10 25 -6z m-3954 -47 c-6 -24 -14
-38 -16 -31 -3 6 -11 12 -19 12 -8 0 -14 7 -14 15 0 20 10 19 26 -2 12 -16 13
-15 14 13 0 17 3 34 7 37 13 14 14 -2 2 -44z m341 12 c14 -26 -15 -58 -36 -40
-15 12 -19 41 -7 52 12 13 32 7 43 -12z m-930 -16 c0 -23 -3 -25 -27 -19 -35
9 -35 8 -27 28 3 9 17 16 30 16 19 0 24 -5 24 -25z m-250 -18 l15 -32 110 -10
c100 -9 110 -12 113 -31 5 -34 -19 -46 -69 -35 -24 6 -62 11 -84 11 -69 0
-113 18 -131 52 -12 24 -13 36 -5 54 15 33 33 30 51 -9z m4830 7 c0 -8 -4 -12
-10 -9 -5 3 -10 13 -10 21 0 8 5 12 10 9 6 -3 10 -13 10 -21z m590 -4 c0 -14
-7 -20 -24 -20 -15 0 -26 7 -29 20 -4 17 0 20 24 20 22 0 29 -5 29 -20z m-620
0 c0 -5 -4 -10 -10 -10 -5 0 -10 5 -10 10 0 6 5 10 10 10 6 0 10 -4 10 -10z
m-3994 -40 c8 0 11 -6 7 -16 -4 -10 -8 -12 -13 -4 -3 6 -15 8 -24 4 -17 -6
-17 -5 -5 17 7 14 14 19 17 11 2 -6 10 -12 18 -12z m4010 -25 c13 -33 43 -52
30 -20 -3 8 -1 15 4 15 6 0 10 -10 10 -23 0 -32 -37 -31 -49 3 -5 14 -12 33
-16 43 -4 9 -4 17 -1 17 4 0 14 -16 22 -35z m34 14 c0 -5 -4 -9 -10 -9 -5 0
-10 7 -10 16 0 8 5 12 10 9 6 -3 10 -10 10 -16z m590 -18 c0 -5 3 -16 6 -25 5
-13 -1 -16 -25 -16 -26 0 -31 4 -31 25 0 20 5 25 25 25 14 0 25 -4 25 -9z
m-4640 -26 c0 -8 -2 -15 -4 -15 -2 0 -6 7 -10 15 -3 8 -1 15 4 15 6 0 10 -7
10 -15z m4386 -31 c7 -28 -9 -46 -36 -41 -16 2 -25 30 -16 53 9 25 45 17 52
-12z m-4426 7 c0 -6 -4 -13 -10 -16 -5 -3 -10 1 -10 9 0 9 5 16 10 16 6 0 10
-4 10 -9z m308 -24 c3 -22 -1 -27 -18 -27 -26 0 -37 25 -20 45 18 22 34 13 38
-18z m-278 13 c0 -5 -4 -10 -10 -10 -5 0 -10 5 -10 10 0 6 5 10 10 10 6 0 10
-4 10 -10z m4092 -55 c10 -48 2 -59 -10 -14 -6 23 -14 34 -25 33 -10 -1 -17 4
-17 10 0 7 10 12 22 11 17 -1 24 -10 30 -40z m-4102 10 c0 -14 -4 -25 -10 -25
-11 0 -14 33 -3 43 11 11 13 8 13 -18z m4678 -7 c3 -24 0 -28 -22 -28 -22 0
-26 4 -26 31 0 26 3 30 23 27 16 -2 23 -11 25 -30z m-5255 16 c12 -12 -6 -34
-29 -34 -17 0 -24 6 -24 20 0 14 7 20 23 20 13 0 26 -3 30 -6z m547 -8 c0 -3
-4 -8 -10 -11 -5 -3 -10 -1 -10 4 0 6 5 11 10 11 6 0 10 -2 10 -4z m-10 -36
c0 -5 -4 -10 -10 -10 -5 0 -10 5 -10 10 0 6 5 10 10 10 6 0 10 -4 10 -10z
m4122 -5 c0 -5 -5 -11 -11 -13 -6 -2 -11 4 -11 13 0 9 5 15 11 13 6 -2 11 -8
11 -13z m-4092 -15 c0 -5 -4 -10 -10 -10 -5 0 -10 5 -10 10 0 6 5 10 10 10 6
0 10 -4 10 -10z m-582 -43 c3 -23 0 -27 -22 -27 -21 0 -26 5 -26 23 0 13 3 27
7 31 15 14 38 0 41 -27z m552 1 c0 -5 -7 -8 -15 -8 -15 0 -20 21 -8 33 7 7 23
-11 23 -25z m4160 11 c0 -15 -5 -20 -22 -17 -12 2 -23 9 -26 16 -2 7 2 10 11
6 8 -3 18 -1 22 5 10 17 15 13 15 -10z m574 -5 c11 -28 7 -34 -24 -34 -25 0
-30 4 -30 25 0 20 5 25 24 25 13 0 27 -7 30 -16z m-578 -47 c8 3 14 -1 14 -8
0 -8 -11 -15 -25 -15 -19 -2 -25 3 -25 19 0 16 3 18 11 10 6 -6 18 -9 25 -6z
m-4166 -7 c0 -5 -5 -10 -11 -10 -7 0 -9 -10 -5 -25 4 -14 2 -25 -4 -25 -11 0
-14 53 -3 63 10 10 23 8 23 -3z m17 -12 c-3 -8 -6 -5 -6 6 -1 11 2 17 5 13 3
-3 4 -12 1 -19z m-567 -34 c0 -19 -5 -24 -25 -24 -20 0 -25 5 -25 24 0 18 5
24 25 24 20 0 25 -6 25 -24z m5310 -5 c0 -16 -6 -20 -27 -17 -36 4 -44 35 -11
40 31 5 38 1 38 -23z m-589 -14 c6 4 8 14 5 22 -3 8 -1 11 4 8 20 -13 10 -41
-15 -43 -21 -1 -25 2 -24 26 0 27 0 27 10 4 5 -13 14 -20 20 -17z m-4164 -7
c-3 -7 -5 -2 -5 12 0 14 2 19 5 13 2 -7 2 -19 0 -25z m-7 -32 c0 -9 -8 -12
-25 -8 -28 5 -24 22 6 22 10 0 19 -6 19 -14z m4196 -9 c4 -4 -3 -7 -15 -7 -16
0 -21 -5 -19 -17 2 -11 11 -17 21 -15 10 2 17 -4 17 -13 0 -9 -9 -15 -24 -15
-20 0 -24 6 -28 35 -2 20 -3 37 -1 39 5 5 42 0 49 -7z m-4746 -22 c0 -21 -5
-25 -30 -25 -22 0 -30 5 -30 18 0 25 9 32 37 32 18 0 23 -5 23 -25z m5310 -11
c0 -20 -4 -25 -16 -20 -9 3 -20 6 -25 6 -5 0 -9 9 -9 20 0 15 7 20 25 20 20 0
25 -5 25 -26z m-4793 -24 c-5 -23 -3 -30 9 -30 12 0 14 7 9 30 -4 19 -3 30 4
30 7 0 11 -41 11 -119 0 -66 5 -132 11 -148 13 -34 -6 -103 -28 -103 -8 0 -13
-6 -10 -12 2 -7 10 -13 17 -13 7 0 15 -5 17 -11 2 -6 -7 -11 -20 -11 -20 0
-25 7 -33 41 -8 38 -17 46 -109 107 -54 36 -101 71 -102 76 -4 11 79 69 155
107 40 20 52 32 52 50 0 21 7 36 18 36 2 0 2 -13 -1 -30z m-523 -46 c9 -22 -1
-34 -30 -34 -17 0 -24 6 -24 18 0 10 3 22 7 25 12 13 41 7 47 -9z m4870 -49
c46 -29 87 -58 90 -63 10 -17 -30 -77 -63 -94 -19 -9 -50 -33 -70 -52 -38 -36
-91 -63 -91 -46 0 6 -6 10 -14 10 -10 0 -14 21 -15 86 -2 82 -1 85 19 79 26
-8 26 11 0 27 -16 10 -20 24 -20 67 l0 54 40 -7 c23 -3 75 -29 124 -61z m448
43 c4 -25 1 -32 -20 -33 -26 -2 -36 9 -28 30 5 14 45 17 48 3z m236 -76 c5
-32 -33 -48 -64 -27 -29 19 -30 29 -3 56 18 18 23 19 42 6 12 -8 23 -24 25
-35z m-5774 19 c17 -18 17 -20 -3 -40 -25 -25 -39 -26 -63 -4 -21 19 -23 34
-6 51 18 18 53 14 72 -7z m4140 -51 c4 -36 3 -67 -4 -79 -5 -11 -10 -35 -10
-53 0 -19 -9 -99 -21 -178 -11 -80 -22 -167 -24 -195 -2 -27 -9 -99 -15 -160
-6 -60 -15 -150 -20 -200 -4 -49 -14 -143 -20 -208 -7 -65 -10 -124 -7 -131 3
-7 28 -16 57 -19 31 -4 76 -20 114 -41 58 -32 95 -63 85 -69 -46 -31 -386 -40
-426 -12 -35 24 -228 446 -240 522 -3 18 2 65 10 105 9 40 21 108 28 150 11
72 14 79 45 97 29 17 36 31 69 138 55 181 76 233 99 249 31 19 260 143 267
144 4 0 9 -27 13 -60z m-3924 11 c0 -24 -4 -28 -25 -28 -21 0 -25 4 -25 28 0
24 4 29 25 29 21 0 25 -5 25 -29z m5330 2 c0 -29 -14 -43 -38 -36 -15 3 -22
13 -22 29 0 20 5 24 30 24 22 0 30 -5 30 -17z m-5330 -94 c0 -15 -4 -19 -16
-15 -9 3 -20 6 -25 6 -5 0 -9 7 -9 15 0 9 9 15 25 15 19 0 25 -5 25 -21z
m4403 9 c7 -21 -4 -38 -23 -38 -23 0 -32 13 -24 34 7 19 40 21 47 4z m908 2
c5 0 9 -7 9 -16 0 -23 -44 -14 -48 10 -3 14 0 17 13 12 9 -3 21 -6 26 -6z
m-5301 -96 c0 -19 -5 -24 -25 -24 -20 0 -25 5 -25 24 0 15 7 26 18 29 25 5 32
-1 32 -29z m5310 2 c0 -14 -4 -27 -8 -30 -16 -10 -52 6 -52 23 0 24 9 31 37
31 18 0 23 -6 23 -24z m-4510 -36 c0 -11 -4 -20 -9 -20 -14 0 -23 18 -16 30
10 17 25 11 25 -10z m3360 5 c17 -20 5 -45 -20 -45 -11 0 -23 7 -26 15 -6 15
11 45 26 45 4 0 13 -7 20 -15z m571 -35 c5 0 9 -4 9 -9 0 -5 -11 -8 -25 -8
-15 0 -25 5 -25 14 0 10 6 13 16 9 9 -3 20 -6 25 -6z m-4728 -22 c4 -12 1 -26
-5 -29 -18 -11 -48 9 -48 31 0 29 46 27 53 -2z m5297 -14 c0 -19 -5 -24 -25
-24 -20 0 -25 5 -25 23 0 30 6 36 31 30 12 -3 19 -14 19 -29z m-4732 -2 c3 -9
-23 -10 -56 -3 -2 1 -1 5 2 9 7 12 49 8 54 -6z m4160 -14 c-3 -23 -48 -35 -48
-12 0 18 17 27 23 12 3 -9 7 -7 12 5 10 24 17 21 13 -5z m-4158 -33 c0 -6 -9
-11 -20 -11 -11 0 -20 5 -20 11 0 6 9 11 20 11 11 0 20 -5 20 -11z m-552 -42
c3 -20 -1 -23 -27 -23 -27 0 -31 4 -31 26 0 22 4 25 28 22 19 -2 28 -9 30 -25z
m4668 0 c-10 -10 -19 5 -10 18 6 11 8 11 12 0 2 -7 1 -15 -2 -18z m30 0 c-10
-10 -19 5 -10 18 6 11 8 11 12 0 2 -7 1 -15 -2 -18z m565 17 c12 0 12 -37 -1
-45 -17 -11 -50 5 -50 24 0 23 11 33 28 26 7 -3 18 -5 23 -5z m-4697 -15 c3
-8 1 -15 -4 -15 -6 0 -10 7 -10 15 0 8 2 15 4 15 2 0 6 -7 10 -15z m-34 -17
c0 -19 -2 -20 -10 -8 -13 19 -13 30 0 30 6 0 10 -10 10 -22z m4126 -45 c-11
-11 -19 6 -11 24 8 17 8 17 12 0 3 -10 2 -21 -1 -24z m25 4 c-8 -8 -11 -7 -11
4 0 20 13 34 18 19 3 -7 -1 -17 -7 -23z m-4111 13 c0 -5 -7 -10 -15 -10 -8 0
-15 -5 -15 -12 0 -6 -3 -9 -6 -5 -11 10 4 37 21 37 8 0 15 -4 15 -10z m-560
-40 c0 -15 -7 -20 -25 -20 -18 0 -25 5 -25 20 0 15 7 20 25 20 18 0 25 -5 25
-20z m5240 -11 c0 -14 -7 -19 -25 -19 -18 0 -25 5 -25 18 0 25 7 31 31 25 10
-3 19 -14 19 -24z m-4667 -12 c-3 -5 -10 -4 -15 1 -6 6 -7 16 -3 22 6 9 9 9
16 -1 4 -7 5 -17 2 -22z m-33 1 c0 -19 -2 -20 -10 -8 -13 19 -13 30 0 30 6 0
10 -10 10 -22z m4100 18 c0 -3 -4 -8 -10 -11 -5 -3 -10 -1 -10 4 0 6 5 11 10
11 6 0 10 -2 10 -4z m25 -5 c3 -5 1 -12 -5 -16 -5 -3 -10 1 -10 9 0 18 6 21
15 7z m-4916 -31 c21 -29 21 -31 4 -55 -10 -13 -22 -25 -26 -25 -9 0 -46 41
-47 52 0 4 40 56 46 58 0 0 10 -14 23 -30z m551 0 c0 -6 12 -23 26 -37 26 -26
26 -26 7 -42 -11 -9 -23 -24 -26 -33 -9 -26 -26 -22 -37 7 -5 14 -16 25 -25
25 -21 0 -19 27 4 40 11 5 23 19 26 30 7 21 25 28 25 10z m4325 0 c3 -5 1 -10
-4 -10 -6 0 -11 5 -11 10 0 6 2 10 4 10 3 0 8 -4 11 -10z m245 0 c0 -6 12 -22
26 -35 l26 -24 -31 -31 -31 -31 -25 28 c-25 29 -32 53 -15 53 6 0 16 11 22 25
11 25 28 34 28 15z m588 -17 c-3 -31 -34 -44 -44 -19 -9 24 3 46 26 46 17 0
21 -5 18 -27z m-4868 -6 c0 -7 -11 -13 -25 -13 -29 -2 -32 4 -8 22 19 13 33
10 33 -9z m4070 13 c0 -5 -2 -10 -4 -10 -3 0 -8 5 -11 10 -3 6 -1 10 4 10 6 0
11 -4 11 -10z m-4642 -37 c3 -19 -1 -23 -22 -23 -21 0 -26 5 -26 26 0 21 4 25
23 22 14 -2 23 -11 25 -25z m4632 7 c0 -5 -4 -10 -10 -10 -5 0 -10 5 -10 10 0
6 5 10 10 10 6 0 10 -4 10 -10z m568 -23 c3 -23 0 -27 -22 -27 -31 0 -36 8
-25 38 12 32 43 25 47 -11z m-603 13 c-3 -5 -11 -10 -16 -10 -6 0 -7 5 -4 10
3 6 11 10 16 10 6 0 7 -4 4 -10z m-4045 -20 c9 -16 8 -20 -5 -20 -8 0 -15 9
-15 20 0 11 2 20 5 20 2 0 9 -9 15 -20z m40 -11 c0 -5 -4 -9 -10 -9 -5 0 -10
7 -10 16 0 8 5 12 10 9 6 -3 10 -10 10 -16z m3992 -21 c-9 -9 -12 -7 -12 12 0
19 3 21 12 12 9 -9 9 -15 0 -24z m29 -1 c-8 -8 -11 -7 -11 4 0 20 13 34 18 19
3 -7 -1 -17 -7 -23z m-4007 -27 c3 -11 9 -30 12 -41 4 -13 2 -19 -4 -15 -5 3
-12 19 -16 37 -5 25 -9 29 -26 24 -11 -4 -20 -2 -20 4 0 20 48 12 54 -9z
m3611 -9 c8 -16 24 -32 35 -36 27 -9 25 -29 -4 -43 -13 -6 -27 -20 -31 -31 -9
-29 -27 -26 -47 9 -9 17 -24 30 -33 30 -24 0 -18 29 9 41 13 6 29 22 35 35 14
31 17 30 36 -5z m-4197 -7 c2 -14 -3 -23 -17 -27 -25 -6 -31 0 -31 30 0 20 5
24 23 21 13 -2 23 -11 25 -24z m4572 -16 c-12 -40 -19 -48 -35 -41 -22 8 -18
23 5 23 11 0 20 7 20 15 0 8 -4 15 -10 15 -5 0 -10 -5 -10 -12 0 -6 -3 -9 -6
-5 -12 12 5 36 24 34 16 -1 18 -6 12 -29z m590 23 c0 -25 -14 -41 -36 -41 -17
0 -24 6 -24 18 0 10 3 22 7 25 10 10 53 8 53 -2z m-4597 -25 c6 -16 -2 -28
-14 -20 -12 7 -11 34 0 34 5 0 11 -6 14 -14z m1371 -37 l149 -33 -7 -75 c-3
-42 -15 -110 -26 -151 -12 -41 -22 -84 -24 -95 -2 -11 -11 -53 -21 -92 -18
-77 -15 -93 15 -93 22 0 123 -52 170 -88 l35 -27 -50 -8 c-90 -15 -345 -19
-391 -7 -39 11 -45 18 -78 84 -43 87 -101 228 -132 320 l-24 68 56 62 c31 33
75 87 97 119 32 45 46 57 62 53 11 -2 87 -19 169 -37z m-1914 -9 c0 -9 -31
-30 -44 -30 -3 0 -6 9 -6 20 0 15 7 20 25 20 14 0 25 -4 25 -10z m570 -33 c0
-20 -25 1 -28 24 -2 23 -2 23 13 5 8 -11 15 -24 15 -29z m29 -2 c0 -5 -6 -1
-14 9 -8 10 -11 24 -8 29 6 10 21 -16 22 -38z m3921 10 c0 -8 -3 -15 -6 -15
-3 0 -12 7 -20 15 -14 13 -13 15 5 15 12 0 21 -6 21 -15z m598 -3 c3 -9 -3
-13 -19 -10 -12 1 -24 9 -27 16 -3 9 3 13 19 10 12 -1 24 -9 27 -16z m-642
-29 c-10 -10 -19 5 -10 18 6 11 8 11 12 0 2 -7 1 -15 -2 -18z m-4456 -18 c0
-20 -5 -25 -25 -25 -30 0 -36 36 -7 43 31 8 32 7 32 -18z m600 -1 c0 -8 -4
-12 -10 -9 -5 3 -10 13 -10 21 0 8 5 12 10 9 6 -3 10 -13 10 -21z m3886 -11
c-11 -11 -17 4 -9 23 7 18 8 18 11 1 2 -10 1 -21 -2 -24z m594 -3 c0 -3 -5
-12 -10 -20 -8 -13 -12 -12 -31 7 -13 13 -19 28 -15 38 5 15 8 15 31 -2 13
-10 24 -20 25 -23z m-4510 -8 c0 -7 -4 -10 -10 -7 -5 3 -10 16 -10 28 0 18 2
19 10 7 5 -8 10 -21 10 -28z m1972 -90 c-16 -15 -32 -34 -35 -42 -6 -13 -8
-13 -14 0 -3 8 -19 27 -35 42 -33 31 -35 44 -7 53 11 4 24 18 30 32 l9 25 41
-41 40 -42 -29 -27z m1908 98 c0 -5 -4 -10 -10 -10 -5 0 -10 5 -10 10 0 6 5
10 10 10 6 0 10 -4 10 -10z m-3815 -56 c16 -30 17 -37 4 -45 -19 -12 -26 -11
-35 3 -5 8 -2 9 9 5 19 -7 20 -3 11 31 -5 17 -11 21 -25 17 -21 -7 -27 10 -6
18 21 9 22 8 42 -29z m-608 0 c6 -16 -11 -34 -33 -34 -13 0 -25 35 -16 44 11
12 43 5 49 -10z m4433 7 c0 -15 -18 -22 -22 -9 -5 15 -28 1 -28 -18 0 -8 7
-14 15 -14 18 0 20 -16 3 -26 -6 -4 -14 -2 -16 4 -2 7 -8 10 -13 6 -12 -7 -11
10 3 41 7 16 19 25 35 25 12 0 23 -4 23 -9z m587 -16 c3 -9 3 -18 0 -21 -7 -8
-47 15 -47 26 0 16 40 11 47 -5z m-4442 -5 c3 -5 1 -10 -4 -10 -6 0 -11 5 -11
10 0 6 2 10 4 10 3 0 8 -4 11 -10z m4630 -50 c0 -16 -6 -26 -19 -28 -25 -5
-39 12 -31 38 10 31 50 24 50 -10z m-221 -3 c18 -13 13 -48 -8 -46 -31 2 -43
14 -35 37 10 25 18 27 43 9z m-4956 -21 c4 -17 -12 -35 -30 -36 -12 0 -29 40
-23 51 11 16 49 6 53 -15z m630 -10 c14 -31 9 -60 -11 -64 -22 -4 -22 14 -1
22 15 6 15 8 0 31 -18 27 -20 35 -8 35 5 0 14 -11 20 -24z m3297 -6 c0 -29
-32 -41 -41 -16 -9 24 4 48 23 44 12 -2 18 -12 18 -28z m403 -39 c-7 -9 -14
-18 -15 -20 -6 -9 -33 23 -33 38 1 14 2 14 14 -1 17 -23 26 -23 26 2 0 11 -4
20 -10 20 -5 0 -7 7 -3 15 4 12 9 10 19 -11 11 -21 12 -30 2 -43z m22 54 c0
-8 -2 -15 -4 -15 -2 0 -6 7 -10 15 -3 8 -1 15 4 15 6 0 10 -7 10 -15z m-3760
-10 c0 -8 -4 -15 -10 -15 -5 0 -10 7 -10 15 0 8 5 15 10 15 6 0 10 -7 10 -15z
m-840 -35 c0 -24 -26 -38 -42 -22 -16 16 -2 42 22 42 13 0 20 -7 20 -20z
m5164 -16 c17 -7 21 -29 7 -38 -16 -10 -41 5 -41 25 0 20 8 23 34 13z m-4876
-26 c4 -20 -36 -34 -52 -18 -8 8 -6 15 9 26 23 17 39 14 43 -8z m4252 -9 c7
-11 9 -23 6 -26 -8 -9 -47 28 -40 38 9 15 23 10 34 -12z m-3621 -54 c0 -5 -6
-1 -14 9 -8 10 -11 24 -8 29 6 10 21 -16 22 -38z m-319 9 c0 -21 -4 -25 -22
-22 -15 2 -24 11 -26 26 -3 18 1 22 22 22 21 0 26 -5 26 -26z m3920 -5 c0 -12
-27 -11 -35 1 -11 17 5 32 21 19 8 -6 14 -15 14 -20z m616 7 c15 -12 16 -17 7
-27 -10 -10 -15 -9 -28 1 -16 13 -21 40 -7 40 5 0 17 -6 28 -14z m-4820 -8 c8
-12 -21 -38 -43 -38 -19 0 -16 27 5 39 22 14 29 13 38 -1z m2122 -12 c2 -10
-2 -22 -9 -26 -20 -13 -39 0 -39 27 0 20 4 24 22 21 13 -2 24 -11 26 -22z
m2027 -26 c3 -5 -1 -10 -9 -10 -9 0 -16 5 -16 10 0 6 4 10 9 10 6 0 13 -4 16
-10z m35 3 c0 -14 -19 -38 -25 -32 -8 8 5 39 16 39 5 0 9 -3 9 -7z m600 -11
c30 -15 35 -23 38 -56 4 -42 -22 -80 -62 -92 -12 -4 -26 -13 -31 -21 -9 -12
-15 -11 -38 7 -34 27 -35 44 -3 36 20 -5 23 -3 19 14 -3 11 -9 23 -14 26 -14
9 -10 58 7 82 18 26 37 27 84 4z m-4745 -46 c7 -21 6 -29 -5 -36 -25 -16 -38
-11 -48 20 -9 24 -8 31 6 40 24 13 36 8 47 -24z m2438 -86 c38 -22 39 -24 22
-34 -33 -18 -87 -78 -97 -108 -12 -33 -24 -29 -33 12 -6 28 -74 100 -95 100
-19 0 -10 19 13 26 32 9 56 33 79 78 l20 39 25 -45 c16 -29 40 -54 66 -68z
m1672 91 c10 -18 -17 -23 -33 -7 -15 15 -15 16 5 16 12 0 24 -4 28 -9z m-27
-53 c-3 -7 -11 -13 -18 -13 -7 0 -15 6 -17 13 -3 7 4 12 17 12 13 0 20 -5 18
-12z m-4313 -28 c0 -16 -6 -26 -18 -28 -19 -4 -32 20 -23 44 9 25 41 13 41
-16z m283 -11 c2 -9 -5 -19 -15 -23 -10 -3 -24 -9 -30 -12 -17 -7 -17 28 -1
44 16 16 42 11 46 -9z m3982 -10 c0 -5 -7 -9 -15 -9 -15 0 -20 12 -9 23 8 8
24 -1 24 -14z m-3947 -53 c4 -10 -3 -14 -29 -14 -29 0 -33 2 -23 14 6 8 19 14
29 14 10 0 20 -6 23 -14z m4562 -24 c-3 -8 -5 -18 -5 -23 0 -15 -19 -10 -39
10 -27 27 -10 54 24 38 14 -7 23 -18 20 -25z m-4539 -58 c-40 -29 -62 -11 -28
25 15 16 19 16 32 4 13 -13 13 -16 -4 -29z m4494 -14 c0 -14 -14 -12 -28 2 -9
9 -12 9 -12 0 0 -6 8 -15 18 -21 16 -9 16 -11 0 -27 -14 -14 -20 -15 -32 -4
-20 16 -20 39 0 61 13 14 21 16 35 8 11 -5 19 -14 19 -19z m-4453 -15 c5 -15
-21 -44 -39 -45 -12 0 -9 35 4 48 16 16 27 15 35 -3z m4221 -11 c2 -12 -4 -24
-12 -27 -19 -7 -40 18 -32 39 8 22 40 13 44 -12z m-3528 -20 c0 -8 -4 -12 -10
-9 -5 3 -10 10 -10 16 0 5 5 9 10 9 6 0 10 -7 10 -16z m3005 -14 c-3 -5 -10
-10 -16 -10 -5 0 -9 5 -9 10 0 6 7 10 16 10 8 0 12 -4 9 -10z m-3640 -26 c16
-24 16 -26 -2 -40 -25 -18 -36 -17 -50 5 -9 15 -8 23 3 40 20 27 28 27 49 -5z
m4314 7 c18 -12 6 -61 -15 -61 -28 0 -46 27 -34 50 11 21 27 25 49 11z m-4594
-31 c0 -18 -6 -26 -23 -28 -13 -2 -25 3 -28 12 -10 26 4 48 28 44 17 -2 23
-10 23 -28z m980 20 c3 -5 -1 -10 -10 -10 -9 0 -13 5 -10 10 3 6 8 10 10 10 2
0 7 -4 10 -10z m-377 -22 c17 -17 15 -45 -3 -52 -23 -9 -47 22 -35 45 12 22
21 24 38 7z m1107 -28 c0 -18 -6 -26 -22 -28 -18 -3 -23 1 -23 21 0 28 9 39
30 35 9 -2 15 -14 15 -28z m353 -9 c5 -30 -10 -45 -37 -36 -21 6 -29 43 -14
59 15 15 48 1 51 -23z m1768 2 c-10 -10 -19 5 -10 18 6 11 8 11 12 0 2 -7 1
-15 -2 -18z m-2796 6 c0 -5 5 -7 10 -4 6 3 10 2 10 -3 0 -14 -11 -21 -26 -15
-16 6 -19 33 -4 33 6 0 10 -5 10 -11z m-670 -52 c0 -5 -7 -16 -16 -24 -17 -18
-39 -10 -58 20 -8 12 -5 21 8 36 l19 21 23 -23 c13 -12 24 -26 24 -30z m4163
19 c21 -16 21 -20 1 -40 -14 -14 -17 -14 -39 2 -17 13 -21 21 -14 35 11 20 27
21 52 3z m-2058 -62 c17 -17 37 -33 45 -36 12 -4 10 -10 -10 -29 -14 -13 -39
-42 -57 -63 l-32 -39 -14 35 c-8 20 -29 44 -46 54 -40 23 -39 37 3 63 18 12
40 35 47 53 12 29 14 30 23 12 6 -10 25 -33 41 -50z m-1339 9 c-9 -9 -38 26
-31 38 5 6 13 3 22 -11 8 -12 13 -24 9 -27z m1815 26 c9 -17 8 -25 -5 -37 -14
-14 -17 -14 -35 2 -16 15 -18 21 -8 37 16 25 34 24 48 -2z m1304 -9 c0 -18 -6
-26 -22 -28 -18 -3 -23 1 -23 21 0 28 9 39 30 35 9 -2 15 -14 15 -28z m-502 1
c-9 -11 -20 -18 -25 -15 -14 9 -9 22 10 27 31 8 32 7 15 -12z m732 -21 c3 -5
2 -10 -4 -10 -5 0 -13 5 -16 10 -3 6 -2 10 4 10 5 0 13 -4 16 -10z m-4076 -14
c10 -11 7 -17 -10 -30 -34 -23 -56 3 -27 32 16 16 23 15 37 -2z m775 -2 c4 -9
4 -19 2 -21 -8 -8 -26 8 -26 23 0 19 16 18 24 -2z m2510 -15 c-13 -14 -21 -16
-28 -9 -8 8 -6 15 8 25 26 20 41 7 20 -16z m761 9 c29 -13 32 -30 9 -48 -13
-11 -18 -10 -35 6 -12 13 -17 27 -13 37 7 20 6 20 39 5z m-3215 -28 c0 -5 -4
-12 -10 -15 -5 -3 -10 -4 -10 -1 0 2 -3 12 -6 20 -5 12 -2 15 10 10 9 -3 16
-10 16 -14z m735 10 c3 -5 1 -10 -4 -10 -6 0 -11 5 -11 10 0 6 2 10 4 10 3 0
8 -4 11 -10z m-447 -100 c-5 -107 -16 -129 -63 -130 -11 0 -35 -9 -53 -20 -18
-11 -50 -20 -72 -20 l-40 0 0 109 0 109 43 17 c23 9 71 20 107 25 36 4 69 8
74 9 5 0 7 -44 4 -99z m1987 73 c82 -18 98 -32 83 -74 -6 -17 -7 -52 -4 -80 7
-51 -3 -83 -29 -92 -15 -7 -134 34 -172 59 -18 12 -23 24 -23 62 -1 26 -5 67
-10 92 -4 25 -6 48 -3 52 5 9 62 3 158 -19z m125 8 c0 -17 -27 -37 -37 -27 -6
6 20 46 29 46 5 0 8 -9 8 -19z m-3130 -21 c11 -11 23 -35 27 -52 3 -18 14 -33
25 -35 10 -3 18 -9 18 -13 0 -12 -35 -39 -72 -54 -20 -9 -45 -29 -54 -45 -29
-50 -114 -54 -114 -7 0 20 4 22 26 18 20 -4 32 3 54 29 l28 34 -23 25 c-38 41
-40 66 -9 95 33 30 67 32 94 5z m778 -3 c2 -11 -3 -17 -16 -17 -20 0 -36 23
-24 34 11 12 37 1 40 -17z m3105 -25 c15 -16 15 -20 1 -40 -19 -28 -30 -28
-49 2 -30 45 12 78 48 38z m-79 -67 c18 -13 18 -16 2 -40 -19 -29 -16 -28 -53
-14 l-28 11 27 14 c17 9 25 20 22 29 -8 19 5 19 30 0z m-3700 -53 c7 -12 -22
-45 -33 -37 -15 9 -14 32 2 38 18 8 25 8 31 -1z m2736 -17 c0 -8 -7 -15 -15
-15 -8 0 -15 7 -15 15 0 8 7 15 15 15 8 0 15 -7 15 -15z m898 -2 c11 -19 -12
-63 -33 -63 -19 0 -38 27 -29 41 5 9 10 5 16 -12 9 -22 10 -23 20 -6 7 13 7
22 -1 30 -15 15 -14 27 4 27 7 0 18 -8 23 -17z m-2668 -27 c-13 -13 -35 7 -25
24 5 8 11 8 21 -1 10 -8 12 -15 4 -23z m1716 13 c3 -6 1 -16 -5 -22 -9 -9 -14
-8 -21 3 -9 15 -4 30 10 30 5 0 12 -5 16 -11z m-2632 -40 c-16 -18 -44 -26
-44 -14 0 3 7 17 16 31 13 19 19 22 31 13 11 -10 11 -15 -3 -30z m968 -1 c-9
-9 -12 -7 -12 12 0 19 3 21 12 12 9 -9 9 -15 0 -24z m1608 18 c0 -16 -18 -31
-27 -22 -8 8 5 36 17 36 5 0 10 -6 10 -14z m605 -16 c0 -18 -6 -26 -22 -28
-18 -3 -23 1 -23 21 0 28 9 39 30 35 9 -2 15 -14 15 -28z m307 -9 c30 -19 47
-38 50 -55 16 -83 -94 -109 -127 -30 -19 47 -19 79 1 98 21 21 23 21 76 -13z
m-2462 4 c0 -8 -4 -15 -9 -15 -5 0 -11 7 -15 15 -3 9 0 15 9 15 8 0 15 -7 15
-15z m1500 1 c0 -20 -21 -31 -30 -16 -10 15 -30 4 -30 -16 0 -19 -31 -15 -38
5 -3 8 0 11 5 8 5 -3 22 3 39 14 35 23 54 24 54 5z m-2477 -53 c-9 -14 -19
-21 -21 -15 -5 16 17 53 28 47 6 -4 2 -17 -7 -32z m1037 27 c0 -5 -6 -10 -14
-10 -8 0 -18 5 -21 10 -3 6 3 10 14 10 12 0 21 -4 21 -10z m40 -16 c0 -8 -4
-12 -10 -9 -5 3 -10 10 -10 16 0 5 5 9 10 9 6 0 10 -7 10 -16z m1284 7 c3 -5
-1 -14 -9 -21 -13 -10 -15 -9 -15 9 0 21 14 28 24 12z m1399 -3 c7 -21 -4 -38
-23 -38 -23 0 -34 16 -26 35 7 18 43 20 49 3z m-3703 -33 c0 -14 -27 -28 -40
-20 -4 3 -3 16 3 29 9 18 15 22 24 14 7 -6 13 -16 13 -23z m1080 14 c0 -5 -4
-9 -10 -9 -5 0 -10 7 -10 16 0 8 5 12 10 9 6 -3 10 -10 10 -16z m1180 2 c0 -6
-5 -13 -10 -16 -15 -9 -43 3 -35 15 8 13 45 13 45 1z m-64 -12 c3 -6 0 -15 -7
-20 -22 -14 -28 -11 -22 11 6 22 18 26 29 9z m-1053 -15 c-3 -7 -11 -10 -19
-7 -20 8 -17 22 5 20 10 0 17 -7 14 -13z m-1106 -27 c-18 -28 -37 -33 -37 -10
0 25 19 43 37 36 12 -5 12 -9 0 -26z m1153 12 c0 -6 -4 -7 -10 -4 -5 3 -10 11
-10 16 0 6 5 7 10 4 6 -3 10 -11 10 -16z m954 6 c-4 -8 -12 -15 -20 -15 -8 0
-14 7 -14 15 0 8 9 15 20 15 13 0 18 -5 14 -15z m-924 -5 c0 -5 -5 -10 -11
-10 -5 0 -7 5 -4 10 3 6 8 10 11 10 2 0 4 -4 4 -10z m40 -11 c0 -5 -7 -9 -15
-9 -9 0 -12 6 -9 15 6 15 24 11 24 -6z m830 0 c0 -5 -9 -9 -20 -9 -19 0 -26
11 -14 23 8 8 34 -3 34 -14z m-62 -7 c2 -7 -6 -12 -17 -12 -21 0 -27 11 -14
24 9 9 26 2 31 -12z m1248 -31 c-11 -18 -26 -13 -26 9 0 11 -4 20 -10 20 -5 0
-10 -5 -10 -12 0 -6 -3 -8 -6 -5 -4 4 -1 14 6 22 12 15 15 14 33 -3 11 -11 16
-25 13 -31z m-1358 17 c8 -7 12 -7 12 1 0 6 9 11 20 11 25 0 26 -16 3 -29 -10
-6 -14 -11 -10 -11 5 0 -5 -26 -21 -57 -27 -55 -67 -160 -79 -210 -5 -22 -2
-23 53 -24 33 -1 71 0 86 1 25 1 27 -1 23 -30 -2 -18 -11 -40 -19 -49 -9 -9
-59 -61 -112 -116 -52 -55 -102 -112 -110 -127 -17 -32 -65 -68 -92 -68 -11 0
-32 15 -47 33 -15 17 -77 84 -139 147 -100 104 -176 192 -176 205 0 3 38 5 85
5 66 0 85 3 85 14 0 7 -14 58 -30 112 -17 55 -35 117 -40 140 -5 22 -12 47
-15 56 -5 13 26 14 252 10 152 -2 263 -8 271 -14z m-1840 -17 c-15 -24 -28
-27 -28 -6 0 13 31 38 38 30 2 -2 -3 -12 -10 -24z m63 -21 c5 0 9 -5 9 -11 0
-8 -5 -7 -15 1 -13 11 -18 10 -30 -6 -13 -18 -14 -18 -20 -1 -4 9 -2 24 5 32
10 13 14 13 27 0 8 -8 19 -15 24 -15z m3077 9 c7 -12 11 -23 8 -26 -8 -9 -36
17 -36 33 0 20 13 17 28 -7z m-45 -29 c3 -11 6 -24 7 -27 1 -4 -3 -9 -9 -11
-12 -4 -34 35 -26 48 10 16 22 11 28 -10z m-3031 -32 c-7 -7 -12 -8 -12 -2 0
6 3 14 7 17 3 4 9 5 12 2 2 -3 -1 -11 -7 -17z m58 -6 c0 -12 3 -13 8 -5 4 7
13 9 21 4 10 -7 11 -13 2 -30 -15 -26 -32 -27 -54 -1 -14 17 -15 24 -5 39 14
22 28 18 28 -7z m2924 2 c9 -22 7 -44 -2 -44 -12 0 -32 46 -25 54 11 10 21 7
27 -10z m-2130 -19 c4 -16 20 -32 41 -42 44 -21 44 -35 1 -56 -22 -10 -36 -24
-38 -39 -5 -35 -31 -32 -48 4 -9 20 -25 35 -40 38 -37 9 -37 36 0 48 16 6 33
19 37 29 16 47 38 55 47 18z m2094 -9 c10 -23 7 -36 -8 -36 -10 0 -30 47 -23
54 11 11 20 6 31 -18z m-2758 -31 c34 -17 35 -22 15 -49 -12 -16 -19 -18 -40
-8 -25 12 -30 27 -19 56 8 20 8 20 44 1z m2701 -22 c9 -10 20 -36 24 -58 9
-55 30 -75 77 -75 45 0 51 -20 16 -57 -40 -43 -68 -32 -145 56 -37 43 -73 95
-79 115 -11 35 -10 37 15 42 14 3 31 7 36 9 14 3 37 -10 56 -32z m-3036 7 c11
-17 -5 -50 -25 -50 -22 0 -30 19 -18 43 10 19 33 23 43 7z m2415 -5 c7 -9 10
-25 6 -41 -5 -20 -12 -25 -34 -22 -19 2 -28 9 -30 26 -6 43 33 68 58 37z
m-1980 -43 c0 -13 -28 -47 -34 -42 -10 10 6 50 20 50 8 0 14 -4 14 -8z m2890
-7 c6 -8 9 -19 5 -25 -10 -16 -42 -12 -49 6 -12 32 21 47 44 19z m-435 -25 c0
-30 -34 -42 -36 -13 -1 16 -2 17 -6 1 -6 -24 -23 -23 -23 2 0 21 27 41 50 37
9 -1 15 -13 15 -27z m-2405 -4 c0 -7 -7 -19 -15 -26 -13 -11 -15 -8 -15 14 0
16 5 26 15 26 8 0 15 -6 15 -14z m56 -21 c4 -8 3 -22 0 -31 -6 -15 -8 -15 -26
1 -15 14 -17 21 -9 32 15 17 28 17 35 -2z m54 -36 c0 -10 -4 -19 -10 -19 -5 0
-10 12 -10 26 0 14 4 23 10 19 6 -3 10 -15 10 -26z m2180 7 c0 -31 -39 -43
-58 -18 -11 14 -10 19 5 29 28 21 53 16 53 -11z m-2120 -15 c0 -16 -12 -41
-20 -41 -4 0 -7 11 -7 25 0 15 5 25 13 25 8 0 14 -4 14 -9z m2040 -11 c0 -11
-4 -20 -10 -20 -5 0 -10 9 -10 20 0 11 5 20 10 20 6 0 10 -9 10 -20z m-1988
-25 c-2 -14 -8 -25 -13 -25 -5 0 -9 11 -9 25 0 14 6 25 14 25 9 0 12 -8 8 -25z
m1928 -1 c0 -14 -4 -23 -10 -19 -5 3 -10 15 -10 26 0 10 5 19 10 19 6 0 10
-12 10 -26z m-50 2 c0 -2 3 -11 6 -19 8 -22 -26 -30 -42 -10 -19 26 -17 33 11
33 14 0 25 -2 25 -4z m-1776 -19 c22 -16 11 -47 -18 -47 -27 0 -46 18 -46 42
0 22 37 25 64 5z m1709 -19 c7 -25 3 -33 -12 -23 -13 8 -15 45 -2 45 5 0 11
-10 14 -22z m-68 -21 c0 -26 -20 -25 -23 2 -3 16 1 22 10 19 7 -3 13 -12 13
-21z m-1544 0 c-1 -4 -1 -14 -1 -22 0 -8 -4 -15 -10 -15 -5 0 -10 12 -10 26 0
14 5 24 11 22 6 -2 10 -7 10 -11z m59 -22 c0 -16 -6 -25 -15 -25 -9 0 -15 9
-15 25 0 16 6 25 15 25 9 0 15 -9 15 -25z m1410 1 c0 -24 -16 -36 -50 -36 -20
0 -32 21 -22 37 6 10 16 13 65 22 4 0 7 -10 7 -23z m-1985 -16 c0 -18 -6 -26
-23 -28 -13 -2 -25 3 -28 12 -10 26 4 48 28 44 17 -2 23 -10 23 -28z m675 -16
c0 -18 -26 -18 -33 0 -3 8 -3 16 0 19 9 10 33 -5 33 -19z m1188 4 c2 -9 -5
-18 -14 -22 -22 -9 -27 -2 -19 24 7 23 28 22 33 -2z m-1126 -8 l22 -20 -27 0
c-20 0 -27 5 -27 20 0 11 2 20 5 20 3 0 15 -9 27 -20z m1062 -6 c-11 -17 -20
-22 -27 -15 -12 12 8 41 29 41 12 0 11 -5 -2 -26z m-996 -15 c10 -13 8 -15
-11 -13 -12 1 -24 3 -26 3 -2 1 2 8 9 16 7 9 13 14 14 13 1 -2 7 -10 14 -19z
m915 15 c9 -10 -4 -34 -18 -34 -20 0 -30 21 -14 31 17 10 24 11 32 3z m-873
-25 c0 -11 -4 -17 -10 -14 -5 3 -10 13 -10 21 0 8 5 14 10 14 6 0 10 -9 10
-21z m1548 -25 c3 -22 -21 -39 -39 -28 -11 6 -12 38 -2 48 13 13 38 1 41 -20z
m-2110 -88 c6 -29 -15 -43 -35 -24 -14 14 -14 20 -3 33 16 19 34 15 38 -9z
m1752 -47 c16 -37 2 -74 -35 -91 -31 -14 -67 0 -90 36 -14 21 -15 29 -3 53 28
60 104 61 128 2z m-1372 -70 c4 -19 -19 -31 -38 -19 -18 11 -4 42 17 38 10 -2
19 -10 21 -19z"/>
<path d="M4315 7939 c-14 -43 45 -66 61 -24 8 19 -13 45 -37 45 -10 0 -21 -10
-24 -21z"/>
<path d="M5036 7499 c-62 -73 -9 -156 79 -123 25 10 48 62 40 93 -17 67 -76
82 -119 30z"/>
<path d="M6821 7144 c0 -11 3 -14 6 -6 3 7 2 16 -1 19 -3 4 -6 -2 -5 -13z"/>
<path d="M7155 6800 c3 -5 8 -10 11 -10 2 0 4 5 4 10 0 6 -5 10 -11 10 -5 0
-7 -4 -4 -10z"/>
<path d="M6870 6235 c7 -9 15 -13 17 -11 7 7 -7 26 -19 26 -6 0 -6 -6 2 -15z"/>
<path d="M2636 6261 c-3 -5 1 -14 9 -21 13 -10 15 -9 15 9 0 21 -14 28 -24 12z"/>
<path d="M6182 6164 c-24 -17 -28 -49 -10 -89 15 -33 28 -32 63 5 16 17 39 30
52 30 27 0 29 16 7 48 -18 27 -78 30 -112 6z"/>
<path d="M6483 5859 c-9 -9 1 -20 37 -45 27 -19 52 -34 55 -34 10 0 5 66 -7
78 -15 15 -70 16 -85 1z"/>
<path d="M5016 5857 c-31 -41 -32 -58 -6 -82 26 -24 79 -10 99 26 12 22 12 29
0 55 -21 44 -60 44 -93 1z"/>
<path d="M5561 5807 c-13 -6 -33 -29 -44 -50 l-20 -39 26 -26 c24 -24 29 -25
65 -14 29 9 42 19 46 36 9 35 -4 85 -25 96 -22 12 -19 12 -48 -3z"/>
<path d="M4087 5794 c-9 -10 2 -24 18 -24 9 0 12 6 9 15 -6 16 -17 19 -27 9z"/>
<path d="M3975 5697 c-4 -10 -5 -21 -1 -24 10 -10 18 4 13 24 -4 17 -4 17 -12
0z"/>
<path d="M5214 5695 c26 -19 42 -19 26 0 -7 8 -20 15 -29 15 -13 -1 -13 -3 3
-15z"/>
<path d="M4206 5685 c-19 -51 11 -115 55 -115 26 0 79 52 79 77 0 34 -17 46
-73 51 -44 3 -55 1 -61 -13z"/>
<path d="M5297 5653 c-4 -3 -7 -26 -7 -49 0 -47 24 -74 68 -74 51 0 94 84 60
118 -13 13 -110 17 -121 5z"/>
<path d="M4276 5541 c-3 -5 1 -14 9 -21 12 -10 15 -10 15 3 0 19 -16 31 -24
18z"/>
<path d="M3900 5515 c0 -14 5 -25 10 -25 6 0 10 11 10 25 0 14 -4 25 -10 25
-5 0 -10 -11 -10 -25z"/>
<path d="M5630 5506 c0 -8 5 -18 10 -21 6 -3 10 3 10 14 0 12 -4 21 -10 21 -5
0 -10 -6 -10 -14z"/>
<path d="M5340 5490 c0 -5 7 -10 15 -10 8 0 15 5 15 10 0 6 -7 10 -15 10 -8 0
-15 -4 -15 -10z"/>
<path d="M3815 5466 c-9 -13 -18 -40 -22 -59 -4 -30 -2 -38 20 -52 29 -19 53
-14 85 16 28 25 28 53 1 90 -25 36 -62 38 -84 5z"/>
<path d="M4300 5471 c0 -5 5 -13 10 -16 6 -3 10 -2 10 4 0 5 -4 13 -10 16 -5
3 -10 2 -10 -4z"/>
<path d="M5642 5449 c2 -7 10 -15 17 -17 8 -3 12 1 9 9 -2 7 -10 15 -17 17 -8
3 -12 -1 -9 -9z"/>
<path d="M5340 5425 c0 -8 5 -15 10 -15 6 0 10 7 10 15 0 8 -4 15 -10 15 -5 0
-10 -7 -10 -15z"/>
<path d="M4771 5414 c0 -11 3 -14 6 -6 3 7 2 16 -1 19 -3 4 -6 -2 -5 -13z"/>
<path d="M4312 5408 c2 -6 10 -14 16 -16 7 -2 10 2 6 12 -7 18 -28 22 -22 4z"/>
<path d="M5667 5393 c-12 -11 -8 -23 8 -23 8 0 15 7 15 15 0 16 -12 20 -23 8z"/>
<path d="M5330 5355 c0 -8 5 -15 10 -15 6 0 10 7 10 15 0 8 -4 15 -10 15 -5 0
-10 -7 -10 -15z"/>
<path d="M4336 5335 c4 -8 8 -15 10 -15 2 0 4 7 4 15 0 8 -4 15 -10 15 -5 0
-7 -7 -4 -15z"/>
<path d="M5704 5342 c-6 -4 -15 -30 -19 -58 -6 -47 -4 -53 16 -68 32 -22 53
-20 88 10 56 47 33 124 -37 124 -20 0 -42 -4 -48 -8z"/>
<path d="M4658 5303 c-47 -29 -62 -87 -30 -116 25 -23 68 -21 92 3 36 36 20
131 -23 130 -7 0 -24 -8 -39 -17z"/>
<path d="M4040 5301 c0 -12 42 -42 48 -36 5 4 -36 45 -45 45 -1 0 -3 -4 -3 -9z"/>
<path d="M5320 5295 c0 -8 5 -15 10 -15 6 0 10 7 10 15 0 8 -4 15 -10 15 -5 0
-10 -7 -10 -15z"/>
<path d="M4765 5290 c-3 -5 1 -10 9 -10 9 0 16 5 16 10 0 6 -4 10 -9 10 -6 0
-13 -4 -16 -10z"/>
<path d="M4346 5275 c4 -8 10 -12 15 -9 11 6 2 24 -11 24 -5 0 -7 -7 -4 -15z"/>
<path d="M4122 5238 c3 -7 15 -15 27 -16 15 -2 21 0 16 7 -3 6 -11 9 -16 6 -5
-4 -9 -1 -9 4 0 6 -5 11 -11 11 -6 0 -9 -6 -7 -12z"/>
<path d="M5310 5235 c0 -8 5 -15 10 -15 6 0 10 7 10 15 0 8 -4 15 -10 15 -5 0
-10 -7 -10 -15z"/>
<path d="M3806 5221 c-4 -7 -5 -15 -2 -18 9 -9 19 4 14 18 -4 11 -6 11 -12 0z"/>
<path d="M4360 5216 c0 -8 5 -18 10 -21 6 -3 10 1 10 9 0 8 -4 18 -10 21 -5 3
-10 -1 -10 -9z"/>
<path d="M4180 5210 c0 -5 5 -10 11 -10 5 0 7 5 4 10 -3 6 -8 10 -11 10 -2 0
-4 -4 -4 -10z"/>
<path d="M4222 5170 c7 -11 17 -20 22 -20 5 0 1 9 -9 20 -10 11 -20 20 -22 20
-2 0 2 -9 9 -20z"/>
<path d="M5300 5170 c0 -11 2 -20 4 -20 2 0 6 9 9 20 3 11 1 20 -4 20 -5 0 -9
-9 -9 -20z"/>
<path d="M4750 5170 c0 -5 12 -10 28 -10 21 0 24 2 12 10 -20 13 -40 13 -40 0z"/>
<path d="M3786 5163 c-9 -9 -7 -33 3 -33 12 0 22 28 12 34 -5 3 -11 3 -15 -1z"/>
<path d="M4272 5140 c15 -24 38 -34 38 -16 0 7 -11 18 -25 24 -23 11 -24 10
-13 -8z"/>
<path d="M4825 5151 c-3 -5 -1 -12 5 -16 5 -3 10 1 10 9 0 18 -6 21 -15 7z"/>
<path d="M4880 5135 c0 -16 16 -20 24 -6 3 5 -1 11 -9 15 -9 3 -15 0 -15 -9z"/>
<path d="M4932 5118 c5 -15 28 -23 28 -10 0 5 -7 13 -16 16 -10 4 -14 1 -12
-6z"/>
<path d="M5080 5070 c0 -5 5 -10 10 -10 6 0 10 5 10 10 0 6 -4 10 -10 10 -5 0
-10 -4 -10 -10z"/>
<path d="M5140 5060 c0 -5 5 -10 11 -10 5 0 7 5 4 10 -3 6 -8 10 -11 10 -2 0
-4 -4 -4 -10z"/>
<path d="M3750 5009 c0 -5 5 -7 10 -4 6 3 10 8 10 11 0 2 -4 4 -10 4 -5 0 -10
-5 -10 -11z"/>
<path d="M5636 4991 c-4 -7 -5 -15 -2 -18 9 -9 19 4 14 18 -4 11 -6 11 -12 0z"/>
<path d="M3730 4956 c0 -9 5 -16 10 -16 6 0 10 4 10 9 0 6 -4 13 -10 16 -5 3
-10 -1 -10 -9z"/>
<path d="M3710 4886 c0 -8 5 -18 10 -21 6 -3 10 3 10 14 0 12 -4 21 -10 21 -5
0 -10 -6 -10 -14z"/>
<path d="M4005 4880 c-3 -6 1 -7 9 -4 18 7 21 14 7 14 -6 0 -13 -4 -16 -10z"/>
<path d="M3638 4839 c-14 -8 -18 -23 -18 -64 0 -47 3 -57 25 -71 34 -22 69
-11 94 30 27 43 26 48 -5 85 -27 32 -63 40 -96 20z"/>
<path d="M5557 4814 c-4 -4 -7 -14 -7 -23 0 -11 3 -12 11 -4 6 6 10 16 7 23
-2 6 -7 8 -11 4z"/>
<path d="M5480 4730 c-23 -23 -26 -49 -7 -74 31 -43 98 10 83 67 -8 33 -46 37
-76 7z m48 -29 c4 -29 -9 -44 -31 -35 -17 6 -23 44 -10 58 14 14 38 0 41 -23z"/>
<path d="M4830 4699 c0 -5 5 -7 10 -4 6 3 10 8 10 11 0 2 -4 4 -10 4 -5 0 -10
-5 -10 -11z"/>
<path d="M3750 4690 c0 -5 5 -10 11 -10 5 0 7 5 4 10 -3 6 -8 10 -11 10 -2 0
-4 -4 -4 -10z"/>
<path d="M3820 4600 c0 -5 5 -10 10 -10 6 0 10 5 10 10 0 6 -4 10 -10 10 -5 0
-10 -4 -10 -10z"/>
<path d="M5506 4585 c4 -8 10 -12 15 -9 11 6 2 24 -11 24 -5 0 -7 -7 -4 -15z"/>
<path d="M3846 4581 c-4 -5 -2 -12 3 -15 5 -4 12 -2 15 3 4 5 2 12 -3 15 -5 4
-12 2 -15 -3z"/>
<path d="M3896 4519 c12 -13 20 -16 22 -9 3 7 -2 16 -9 21 -25 16 -32 9 -13
-12z"/>
<path d="M3950 4470 c-24 -24 -25 -39 -4 -68 19 -27 64 -29 88 -3 23 25 4 66
-36 80 -24 8 -32 7 -48 -9z"/>
<path d="M3517 4283 c-4 -3 1 -12 11 -19 13 -10 15 -17 6 -31 -16 -26 -37 -22
-44 7 -5 22 -7 23 -13 6 -16 -41 44 -63 76 -28 22 25 21 49 -2 62 -23 12 -26
12 -34 3z"/>
<path d="M5551 4084 c0 -11 3 -14 6 -6 3 7 2 16 -1 19 -3 4 -6 -2 -5 -13z"/>
<path d="M5550 4021 c0 -6 5 -13 10 -16 6 -3 10 1 10 9 0 9 -4 16 -10 16 -5 0
-10 -4 -10 -9z"/>
<path d="M2904 5155 c-13 -34 41 -50 66 -20 16 19 14 20 -28 28 -24 5 -34 3
-38 -8z"/>
<path d="M5930 4445 c0 -8 7 -15 16 -15 14 0 14 3 4 15 -7 8 -14 15 -16 15 -2
0 -4 -7 -4 -15z"/>
<path d="M5940 4386 c0 -2 7 -6 15 -10 8 -3 15 -1 15 4 0 6 -7 10 -15 10 -8 0
-15 -2 -15 -4z"/>
<path d="M5960 4330 c-12 -8 -10 -10 8 -10 13 0 20 4 17 10 -7 12 -6 12 -25 0z"/>
<path d="M5980 4267 c0 -8 7 -18 16 -21 11 -4 14 -1 12 11 -4 21 -28 30 -28
10z"/>
<path d="M5990 4200 c0 -5 7 -10 15 -10 8 0 15 5 15 10 0 6 -7 10 -15 10 -8 0
-15 -4 -15 -10z"/>
<path d="M6040 4076 c0 -8 5 -18 10 -21 6 -3 10 1 10 9 0 8 -4 18 -10 21 -5 3
-10 -1 -10 -9z"/>
<path d="M4225 4299 c-10 -15 3 -25 16 -12 7 7 7 13 1 17 -6 3 -14 1 -17 -5z"/>
<path d="M4230 4240 c-13 -8 -12 -10 3 -10 9 0 17 5 17 10 0 12 -1 12 -20 0z"/>
<path d="M4230 4185 c0 -8 5 -15 10 -15 6 0 10 7 10 15 0 8 -4 15 -10 15 -5 0
-10 -7 -10 -15z"/>
<path d="M4235 4121 c-6 -11 9 -23 19 -14 9 9 7 23 -3 23 -6 0 -12 -4 -16 -9z"/>
<path d="M4050 3325 c0 -8 6 -15 14 -15 8 0 16 7 20 15 4 10 -1 15 -14 15 -11
0 -20 -7 -20 -15z"/>
<path d="M6109 3344 c-10 -13 -10 -17 2 -25 22 -14 44 -6 47 19 4 27 -28 31
-49 6z"/>
<path d="M5047 2923 c-18 -5 -47 -51 -47 -76 0 -8 9 -26 21 -41 30 -38 79 -36
113 5 59 70 7 137 -87 112z"/>
<path d="M5757 2424 c-4 -4 -7 -20 -7 -36 0 -26 3 -29 28 -26 23 3 27 8 27 33
0 23 -5 31 -20 33 -12 2 -24 0 -28 -4z"/>
<path d="M3905 8293 c-38 -14 -87 -32 -109 -40 -49 -18 -96 -42 -96 -49 0 -4
6 -4 13 -1 6 3 75 31 152 61 141 56 171 78 40 29z"/>
<path d="M3583 8154 c-17 -7 -35 -18 -38 -24 -6 -9 70 24 84 36 9 8 -15 2 -46
-12z"/>
<path d="M3424 8064 c-18 -14 -18 -15 4 -4 12 6 22 13 22 15 0 8 -5 6 -26 -11z"/>
<path d="M3380 8040 c-9 -6 -10 -10 -3 -10 6 0 15 5 18 10 8 12 4 12 -15 0z"/>
<path d="M3315 8006 c-11 -8 -52 -34 -90 -59 -39 -25 -77 -53 -85 -62 -11 -14
191 113 209 131 10 10 -16 2 -34 -10z"/>
<path d="M7550 7951 c0 -11 5 -23 10 -26 6 -3 10 -33 10 -66 0 -63 3 -68 31
-43 17 15 22 15 61 -4 51 -24 68 -15 48 25 -8 16 -16 31 -18 36 -2 4 8 7 22 7
28 0 32 10 15 41 -8 16 -17 18 -44 13 -26 -4 -44 -1 -70 15 -45 26 -65 27 -65
2z"/>
<path d="M2578 7944 c-4 -4 -36 -10 -70 -13 l-63 -6 0 -72 c0 -76 4 -84 25
-57 28 33 49 36 81 13 17 -12 34 -18 39 -13 5 5 6 42 2 82 -4 41 -10 70 -14
66z"/>
<path d="M2834 7641 c-49 -43 -127 -121 -174 -172 -120 -133 -140 -161 -36
-52 48 51 137 140 199 198 61 58 109 105 106 105 -4 0 -47 -35 -95 -79z"/>
<path d="M2459 7233 c-13 -16 -12 -17 4 -4 16 13 21 21 13 21 -2 0 -10 -8 -17
-17z"/>
<path d="M2327 7059 c-16 -21 -26 -39 -23 -39 8 0 59 70 55 74 -2 3 -17 -13
-32 -35z"/>
<path d="M2248 6938 c-26 -34 -78 -131 -61 -113 14 14 94 145 89 145 -2 0 -15
-15 -28 -32z"/>
<path d="M1756 6904 c-19 -20 -26 -37 -26 -65 0 -38 1 -39 33 -39 43 0 67 26
67 71 0 61 -31 75 -74 33z"/>
<path d="M8362 6908 c-15 -15 -16 -63 -2 -89 14 -25 54 -25 80 1 25 25 26 66
3 78 -34 17 -69 22 -81 10z"/>
<path d="M2139 6762 c-25 -36 -109 -221 -109 -238 1 -5 32 54 71 130 38 76 68
140 67 142 -2 1 -15 -14 -29 -34z"/>
<path d="M8446 6746 c3 -9 11 -16 16 -16 13 0 5 23 -10 28 -7 2 -10 -2 -6 -12z"/>
<path d="M1990 6451 c-16 -31 -97 -280 -104 -321 -3 -19 8 6 25 55 16 50 46
132 65 183 20 51 34 96 31 98 -3 3 -10 -4 -17 -15z"/>
<path d="M8661 6181 c-16 -28 -13 -87 3 -101 21 -17 68 8 80 43 8 22 6 31 -9
46 -32 30 -62 35 -74 12z"/>
<path d="M1445 6156 c-20 -37 -16 -59 13 -75 28 -15 72 21 72 58 0 59 -56 71
-85 17z"/>
<path d="M1871 6074 c0 -11 3 -14 6 -6 3 7 2 16 -1 19 -3 4 -6 -2 -5 -13z"/>
<path d="M1831 5904 c0 -11 3 -14 6 -6 3 7 2 16 -1 19 -3 4 -6 -2 -5 -13z"/>
<path d="M1800 5765 c-7 -41 -11 -77 -8 -80 2 -2 10 30 17 71 7 42 11 78 8 80
-2 2 -10 -30 -17 -71z"/>
<path d="M1390 5725 c0 -8 5 -15 10 -15 6 0 10 7 10 15 0 8 -4 15 -10 15 -5 0
-10 -7 -10 -15z"/>
<path d="M8760 5720 c0 -19 3 -21 12 -12 9 9 9 15 0 24 -9 9 -12 7 -12 -12z"/>
<path d="M8770 5625 c0 -8 5 -15 10 -15 6 0 10 7 10 15 0 8 -4 15 -10 15 -5 0
-10 -7 -10 -15z"/>
<path d="M1772 5540 c0 -14 2 -19 5 -12 2 6 2 18 0 25 -3 6 -5 1 -5 -13z"/>
<path d="M1335 5255 c-9 -30 -21 -57 -26 -60 -16 -11 -79 -126 -79 -146 0 -29
30 -23 41 10 9 26 15 29 72 35 60 6 62 5 97 -29 37 -36 70 -46 70 -21 0 8 -19
52 -43 98 -24 46 -50 102 -59 126 -24 62 -50 58 -73 -13z m28 -42 c2 -10 8
-26 12 -35 6 -15 2 -18 -24 -18 -17 0 -31 2 -31 4 0 1 5 17 11 35 12 35 24 40
32 14z"/>
<path d="M8790 5307 c0 -20 -47 -118 -83 -173 -26 -39 -47 -79 -47 -88 0 -26
28 -18 44 13 14 26 23 30 77 36 60 7 61 7 98 -29 33 -32 71 -48 71 -29 0 22
-135 273 -146 273 -8 0 -14 -1 -14 -3z m18 -119 c11 -27 10 -28 -18 -28 -33 0
-38 16 -19 52 12 22 19 17 37 -24z"/>
<path d="M8760 4680 c0 -19 3 -21 12 -12 9 9 9 15 0 24 -9 9 -12 7 -12 -12z"/>
<path d="M1640 3781 c0 -5 5 -13 10 -16 6 -3 10 -2 10 4 0 5 -4 13 -10 16 -5
3 -10 2 -10 -4z"/>
<path d="M1804 3394 c3 -9 6 -18 6 -20 0 -2 5 -4 10 -4 6 0 10 9 10 20 0 12
-7 20 -16 20 -11 0 -14 -5 -10 -16z"/>
<path d="M8158 3169 c-23 -17 -28 -28 -28 -65 0 -42 1 -44 30 -44 58 0 96 61
70 111 -14 24 -38 24 -72 -2z"/>
<path d="M1972 3098 c3 -29 6 -33 33 -33 21 0 31 5 33 19 5 22 -22 46 -51 46
-15 0 -18 -6 -15 -32z"/>
<path d="M2125 2921 c-9 -15 8 -35 24 -30 8 3 7 10 -2 23 -10 14 -16 16 -22 7z"/>
<path d="M2202 2818 c5 -15 28 -23 28 -10 0 5 -7 13 -16 16 -10 4 -14 1 -12
-6z"/>
<path d="M2350 2640 c0 -5 5 -10 10 -10 6 0 10 5 10 10 0 6 -4 10 -10 10 -5 0
-10 -4 -10 -10z"/>
<path d="M2430 2561 c0 -5 5 -13 10 -16 6 -3 10 -2 10 4 0 5 -4 13 -10 16 -5
3 -10 2 -10 -4z"/>
<path d="M3415 1818 c-10 -15 -11 -24 -5 -26 6 -2 15 -15 20 -28 8 -20 16 -24
52 -23 24 1 35 3 25 6 -10 3 -27 25 -37 49 -22 50 -32 54 -55 22z"/>
<path d="M6646 1803 c-9 -23 24 -83 46 -83 22 0 23 13 1 62 -18 40 -37 49 -47
21z"/>
<path d="M3386 1763 c-6 -14 -5 -15 5 -6 7 7 10 15 7 18 -3 3 -9 -2 -12 -12z"/>
<path d="M6505 1760 c-9 -15 4 -108 17 -117 11 -6 8 18 -8 76 l-7 25 37 -23
c38 -24 55 -20 76 18 7 13 2 16 -28 17 -21 1 -47 4 -58 8 -13 5 -25 3 -29 -4z"/>
<path d="M3540 1734 c-13 -33 -12 -45 4 -67 12 -16 15 -13 29 30 9 26 13 51
11 55 -11 17 -35 7 -44 -18z"/>
<path d="M3738 1708 c15 -7 22 -20 22 -38 0 -34 -20 -52 -56 -48 -34 4 -43
-18 -12 -32 19 -9 32 -6 68 13 70 37 64 97 -10 111 -31 5 -32 5 -12 -6z"/>
<path d="M6324 1705 c-10 -8 -14 -14 -9 -15 15 0 40 18 34 24 -3 3 -14 -1 -25
-9z"/>
<path d="M6282 1661 c-3 -7 5 -33 16 -56 20 -42 23 -43 51 -35 41 12 51 19 51
37 0 15 -12 15 -52 -2 -14 -5 -18 -2 -18 13 0 12 11 24 30 32 17 7 30 16 30
21 0 15 -102 6 -108 -10z"/>
<path d="M6116 1637 c-17 -12 -15 -16 18 -56 20 -24 36 -48 36 -54 0 -6 2 -8
5 -5 3 2 -2 28 -11 58 -13 44 -13 54 -2 61 9 6 7 9 -8 9 -11 0 -28 -6 -38 -13z"/>
<path d="M3868 1619 c-22 -12 -23 -32 -3 -49 12 -10 16 -8 23 11 l9 24 16 -30
c8 -17 27 -41 41 -54 l26 -24 15 37 c13 29 13 41 4 52 -8 10 -15 11 -24 4 -8
-7 -16 -3 -25 15 -14 27 -50 33 -82 14z"/>
<path d="M4090 1558 c0 -52 15 -66 29 -27 16 46 14 59 -9 59 -16 0 -20 -7 -20
-32z"/>
<path d="M4254 1556 c-3 -8 -4 -29 -2 -48 l3 -33 14 40 c8 22 19 43 25 47 6 5
1 8 -12 8 -12 0 -25 -6 -28 -14z"/>
<path d="M5930 1540 c0 -15 7 -20 25 -20 31 0 34 -27 4 -38 -17 -7 -18 -10 -7
-19 20 -17 58 2 58 29 0 53 -11 68 -46 68 -27 0 -34 -4 -34 -20z"/>
<path d="M4490 1509 c25 -45 -20 -98 -56 -68 -14 11 -15 10 -12 -11 2 -20 10
-26 35 -28 45 -4 71 13 79 52 9 49 -2 76 -32 76 -22 0 -23 -2 -14 -21z"/>
<path d="M5758 1522 c-16 -6 -15 -11 10 -49 15 -24 29 -43 32 -43 3 0 5 23 5
50 0 52 -7 58 -47 42z"/>
<path d="M4700 1501 c14 -4 26 -15 28 -24 3 -14 -4 -17 -37 -17 -34 0 -41 -3
-41 -20 0 -12 7 -20 16 -20 9 0 23 -9 32 -19 10 -11 28 -22 42 -26 20 -6 23
-5 13 6 -18 18 -16 39 4 62 17 18 17 20 -10 43 -16 13 -38 24 -50 23 -20 -1
-20 -2 3 -8z"/>
<path d="M5293 1483 c9 -2 25 -2 35 0 9 3 1 5 -18 5 -19 0 -27 -2 -17 -5z"/>
<path d="M5556 1483 c-14 -14 -4 -33 19 -39 31 -8 33 -34 3 -34 -21 0 -21 -1
-5 -17 16 -16 20 -16 45 -3 30 17 41 60 20 77 -16 13 -74 24 -82 16z"/>
<path d="M4878 1450 c-4 -14 -8 -38 -7 -55 0 -30 0 -30 10 -5 6 13 9 38 7 55
-3 29 -3 30 -10 5z"/>
<path d="M4986 1455 c-3 -8 0 -28 6 -43 12 -27 12 -27 16 -3 l4 23 31 -30 c18
-17 44 -34 60 -37 26 -7 27 -6 27 34 0 34 -3 41 -20 41 -11 0 -20 -5 -20 -12
0 -7 -6 -7 -17 3 -24 19 -61 39 -72 39 -5 0 -11 -7 -15 -15z"/>
<path d="M5293 1443 c-3 -8 3 -20 13 -28 18 -13 18 -14 1 -20 -9 -4 -28 -4
-42 -1 -32 8 -33 -9 -2 -29 27 -18 83 -11 91 11 12 30 -5 72 -31 77 -16 3 -27
-1 -30 -10z"/>
</g>
</svg>
