<?xml version="1.0" standalone="no"?><!DOCTYPE svg PUBLIC "-//W3C//DTD SVG 1.1//EN"
        "http://www.w3.org/Graphics/SVG/1.1/DTD/svg11.dtd">
<svg t="1713151185840" class="icon" viewBox="0 0 1024 1024" version="1.1" xmlns="http://www.w3.org/2000/svg" p-id="1001"
     width="200" height="200">
    <path d="M435.60448 244.59264a30.72 30.72 0 0 0-54.54848 5.44256L320.0256 407.808H245.76a30.72 30.72 0 0 0 0 61.44h95.31904a30.72 30.72 0 0 0 28.65152-19.6352l46.73536-120.81152 173.24032 271.40608a30.70976 30.70976 0 0 0 53.08928-2.23744l67.61984-128.7168H783.36a30.72 30.72 0 1 0 0-61.44h-91.50464a30.72 30.72 0 0 0-27.19744 16.43008l-51.64032 98.29888-177.41312-277.94944z"
          p-id="1002"
          fill="#409EFF"
    >
    </path>
    <path d="M35.84 157.01504C35.84 107.0592 76.3392 66.56 126.29504 66.56h776.52992C952.7808 66.56 993.28 107.0592 993.28 157.01504v537.6c0 49.95584-40.4992 90.44992-90.45504 90.44992H126.29504C76.3392 785.06496 35.84 744.57088 35.84 694.61504v-537.6zM126.29504 128A29.01504 29.01504 0 0 0 97.28 157.01504v537.6a29.01504 29.01504 0 0 0 29.01504 29.00992h776.52992a29.01504 29.01504 0 0 0 29.01504-29.00992v-537.6A29.01504 29.01504 0 0 0 902.82496 128H126.29504z"
          p-id="1003"
          fill="#409EFF"
    >
    </path>
    <path d="M240.64 932.1984a30.72 30.72 0 0 1 30.72-30.72h477.86496a30.72 30.72 0 0 1 0 61.44H271.36a30.72 30.72 0 0 1-30.72-30.72z"
          p-id="1004"
          fill="#409EFF"
    >
    </path>
</svg>
